<?xml version="1.0" encoding="utf-8"?>
<!-- Generator: Adobe Illustrator 26.0.1, SVG Export Plug-In . SVG Version: 6.00 Build 0)  -->
<svg version="1.1" id="Layer_1" xmlns="http://www.w3.org/2000/svg" xmlns:xlink="http://www.w3.org/1999/xlink" x="0px" y="0px"
	 viewBox="0 0 73.21 73.21" style="enable-background:new 0 0 73.21 73.21;" xml:space="preserve">
<style type="text/css">
	.st0{fill:none;stroke:#F0828F;stroke-width:3;stroke-miterlimit:10;}
	.st1{fill:none;stroke:#F0828F;stroke-width:3;stroke-linecap:round;stroke-miterlimit:10;}
	.st2{fill:none;stroke:#F0828F;stroke-width:3;stroke-linecap:round;stroke-linejoin:round;stroke-miterlimit:10;}
</style>
<g>
	<path class="st0" d="M50.97,59.92H22.25c-1.42,0-2.61-1.08-2.75-2.49l-3.96-41.1c-0.16-1.62,1.12-3.02,2.75-3.02h36.65
		c1.63,0,2.9,1.4,2.75,3.02l-3.96,41.1C53.58,58.84,52.39,59.92,50.97,59.92z"/>
	<line class="st1" x1="15.25" y1="16.15" x2="2.59" y2="28.81"/>
	<line class="st1" x1="57.97" y1="16.15" x2="70.63" y2="28.81"/>
	<path class="st1" d="M40.04,23.98h-6.87c-1.64,0-3.25-0.41-4.69-1.2L17.21,16.6c-1.6-0.88-0.97-3.3,0.85-3.3h37.09
		c1.82,0,2.44,2.43,0.85,3.3l-11.27,6.18C43.29,23.57,41.68,23.98,40.04,23.98z"/>
	<g>
		<rect x="28.07" y="43.45" class="st2" width="17.07" height="9.27"/>
		<rect x="30.76" y="35.94" class="st2" width="11.69" height="7.51"/>
		<polygon class="st2" points="36.61,35.94 30.76,35.94 36.61,30.47 42.45,35.94 		"/>
		<line class="st2" x1="30.76" y1="35.94" x2="28.39" y2="33.57"/>
		<line class="st2" x1="42.45" y1="35.94" x2="44.82" y2="33.57"/>
		<line class="st2" x1="28.07" y1="43.45" x2="25.71" y2="41.09"/>
		<line class="st2" x1="45.14" y1="43.45" x2="47.51" y2="41.09"/>
		<line class="st2" x1="36.61" y1="27.95" x2="36.61" y2="30.62"/>
	</g>
</g>
</svg>
