<?xml version="1.0" encoding="utf-8"?>
<!-- Generator: Adobe Illustrator 26.0.1, SVG Export Plug-In . SVG Version: 6.00 Build 0)  -->
<svg version="1.1" id="Layer_1" xmlns="http://www.w3.org/2000/svg" xmlns:xlink="http://www.w3.org/1999/xlink" x="0px" y="0px"
	 viewBox="0 0 383.33 172.79" style="enable-background:new 0 0 383.33 172.79;" xml:space="preserve">
<style type="text/css">
	.st0{fill:none;}
	.st1{fill:#504A4E;}
	.st2{font-family:'MagicMushroom';}
	.st3{font-size:60px;}
	.st4{fill:#F3AAB9;}
	.st5{fill:#FFFFFF;}
	.st6{fill:#FFFFFF;stroke:#000000;stroke-width:2;stroke-miterlimit:10;}
	.st7{fill:#FCD395;}
	.st8{fill:#F5B6BB;}
	.st9{fill:#CEE8E8;}
	.st10{fill:#F9D4D6;}
	.st11{fill:#EF808E;}
</style>
<rect x="153.36" y="58.78" class="st0" width="295.62" height="55.44"/>
<text transform="matrix(1 0 0 1 153.3604 100.4248)" class="st1 st2 st3">xiaoco ijs</text>
<g>
	<g>
		<circle class="st4" cx="25.68" cy="150.77" r="7.39"/>
		<path class="st1" d="M25.68,159.23c-4.66,0-8.46-3.79-8.46-8.46s3.79-8.46,8.46-8.46s8.46,3.79,8.46,8.46
			S30.35,159.23,25.68,159.23z M25.68,144.46c-3.48,0-6.32,2.83-6.32,6.32c0,3.48,2.83,6.32,6.32,6.32s6.32-2.83,6.32-6.32
			C32,147.29,29.17,144.46,25.68,144.46z"/>
	</g>
	<g>
		<g>
			<polyline class="st4" points="95.07,134.93 113.21,132.78 115.5,152.11 97.37,154.26 			"/>
			<polygon class="st1" points="97.49,155.32 97.24,153.2 114.32,151.17 112.28,133.97 95.2,135.99 94.95,133.87 114.15,131.59 
				116.69,153.05 			"/>
		</g>
		<g>
			<path class="st4" d="M107.69,137.24l-2.13-6.04c-1.18-3.34-0.03-7.13,2.95-9.05c0.97-0.62,2.09-1.04,3.31-1.19l0,0
				c4.27-0.5,8.14,2.55,8.65,6.82l1.99,16.74c0.44,3.68-2.19,7.02-5.88,7.46l-8.8,1.04"/>
			<path class="st1" d="M107.77,154.1c-0.53,0-1-0.4-1.06-0.94c-0.07-0.59,0.35-1.12,0.94-1.19l8.8-1.04
				c1.5-0.18,2.84-0.93,3.77-2.11c0.93-1.18,1.35-2.66,1.17-4.16l-1.98-16.75c-0.44-3.68-3.78-6.31-7.46-5.88
				c-1.03,0.12-1.99,0.47-2.85,1.03c-2.49,1.61-3.55,4.88-2.52,7.79l2.13,6.04c0.2,0.56-0.1,1.17-0.65,1.36
				c-0.56,0.2-1.17-0.1-1.36-0.65l-2.13-6.04c-1.37-3.9,0.01-8.13,3.38-10.3c1.14-0.74,2.4-1.19,3.76-1.35
				c4.84-0.57,9.26,2.9,9.84,7.75l1.98,16.75c0.24,2.07-0.33,4.1-1.62,5.74c-1.29,1.63-3.13,2.67-5.2,2.91l-8.8,1.04
				C107.86,154.1,107.81,154.1,107.77,154.1z"/>
		</g>
	</g>
	<g>
		<path class="st4" d="M65.56,129.87c0,0,17.69-18.64,32.33-16.96c-7.14-15.19-19.54-28.22-33.64-28.22
			c-27.62,0-30.38,17.5-36.63,35.57C43.17,135.18,65.56,129.87,65.56,129.87z"/>
		<path class="st1" d="M56.16,131.82c-8.15,0-19.96-1.84-29.28-10.79l-0.49-0.47l0.22-0.65c0.6-1.75,1.18-3.51,1.74-5.22
			c5.24-15.98,10.18-31.07,35.89-31.07c15.51,0,28.04,14.9,34.6,28.84l0.82,1.74l-1.91-0.22c-13.95-1.6-31.26,16.45-31.44,16.63
			l-0.22,0.23l-0.31,0.07C65.71,130.93,61.81,131.82,56.16,131.82z M28.86,119.95c13.97,12.89,33.51,9.48,36.15,8.94
			c1-1.02,5.07-5.07,10.6-9c7.69-5.47,14.6-8.22,20.52-8.16c-6.46-12.85-17.95-25.98-31.87-25.98c-24.16,0-28.66,13.72-33.86,29.6
			C29.9,116.86,29.39,118.41,28.86,119.95z"/>
	</g>
	<g>
		<path class="st5" d="M65.56,129.87c0,0-22.39,5.3-37.93-9.61c-2.22,6.42-3.45,12.9-3.45,18.7c0,6.92,1.75,12.04,4.84,15.81
			c6.79,8.3,20.02,10.07,35.24,10.07c22.13,0,40.07-3.74,40.07-25.88c0-8.03-2.37-17.39-6.44-26.05
			C83.25,111.23,65.56,129.87,65.56,129.87z"/>
		<path class="st1" d="M64.26,165.9c-13.61,0-28.53-1.24-36.07-10.46c-3.37-4.12-5.08-9.67-5.08-16.48c0-5.82,1.21-12.41,3.51-19.05
			l0.55-1.58l1.21,1.16c13.99,13.43,33.97,9.95,36.64,9.41c2.24-2.3,18.75-18.68,33-17.05l0.59,0.07l0.25,0.54
			c4.22,8.97,6.54,18.38,6.54,26.51c0,10.7-4.03,17.96-12.32,22.19C86.64,164.44,77.75,165.9,64.26,165.9z M28.12,122.16
			c-1.88,5.89-2.87,11.66-2.87,16.8c0,6.4,1.5,11.35,4.6,15.13c6.97,8.53,21.31,9.67,34.41,9.67c13.14,0,21.73-1.39,27.85-4.52
			c7.51-3.83,11.15-10.47,11.15-20.29c0-7.65-2.16-16.52-6.08-25.04c-13.83-1.03-30.68,16.52-30.85,16.7l-0.22,0.23l-0.31,0.07
			C65.58,130.97,43.83,135.91,28.12,122.16z"/>
	</g>
	<g>
		<path class="st4" d="M78.36,100.03l10.71,0.07c6.27-0.9,12.15-3.59,16.93-7.75l0,0c3.82-3.32,9.66-2.66,12.64,1.42l0,0
			c2.87,3.92,1.95,9.43-2.04,12.2l-7.08,4.93c-3.91,2.72-8.36,4.56-13.04,5.39l-16.3,1.5"/>
		<path class="st1" d="M80.27,118.86l-0.2-2.13l16.25-1.5c4.48-0.8,8.83-2.61,12.58-5.21l7.08-4.93c1.69-1.17,2.81-2.94,3.15-4.97
			c0.34-2.03-0.14-4.06-1.36-5.72c-1.26-1.73-3.13-2.81-5.26-3.05c-2.13-0.24-4.2,0.4-5.82,1.81c-4.95,4.3-10.99,7.07-17.48,8
			l-0.08,0.01l-10.79-0.07l0.01-2.14l10.63,0.07c6.05-0.89,11.68-3.47,16.3-7.49c2.05-1.78,4.76-2.62,7.46-2.32
			c2.69,0.3,5.15,1.73,6.75,3.91c1.56,2.13,2.18,4.74,1.74,7.34c-0.44,2.6-1.87,4.86-4.03,6.37l-7.08,4.93
			c-4.01,2.79-8.67,4.72-13.47,5.57l-0.09,0.01L80.27,118.86z"/>
	</g>
	<path class="st1" d="M83.47,171l2.71-8.38c-6.25,1.7-13.72,2.21-21.74,2.22L83.47,171z"/>
	<path class="st4" d="M70.88,144.31c0,0-5.45-0.79-9.78,3.1c-5.54,4.98-14.68,12.57-30.14,9.4c0.02,0.01,0.03,0.03,0.05,0.04
		c7.2,6.52,19.4,7.98,33.25,7.98c0.06,0,0.12,0,0.18,0c8.02-0.01,15.49-0.51,21.74-2.22l3.91-12.09L70.88,144.31z"/>
	<g>
		<g>
			<polyline class="st4" points="64.25,164.78 83.47,170.99 90.09,150.52 70.88,144.3 			"/>
			<path class="st1" d="M83.47,172.06c-0.11,0-0.22-0.02-0.33-0.05l-19.21-6.22c-0.56-0.18-0.87-0.79-0.69-1.35
				c0.18-0.56,0.78-0.87,1.35-0.69l18.2,5.89l5.97-18.44l-18.2-5.89c-0.56-0.18-0.87-0.79-0.69-1.35c0.18-0.56,0.79-0.87,1.35-0.69
				l19.21,6.22c0.56,0.18,0.87,0.79,0.69,1.35l-6.63,20.47C84.34,171.78,83.92,172.06,83.47,172.06z"/>
		</g>
		<g>
			<path class="st4" d="M82.48,152.45l0.65-7.05c0.36-3.89,3.27-7.17,7.14-7.73c1.26-0.18,2.58-0.09,3.87,0.33l0,0
				c4.52,1.46,7,6.32,5.54,10.84l-5.74,17.74c-1.26,3.9-5.45,6.04-9.35,4.78l-9.32-3.02"/>
			<path class="st1" d="M86.88,172.79c-0.88,0-1.76-0.14-2.62-0.42l-9.32-3.02c-0.56-0.18-0.87-0.79-0.69-1.35
				c0.18-0.56,0.78-0.87,1.35-0.69l9.32,3.02c1.61,0.52,3.34,0.39,4.85-0.39c1.51-0.77,2.63-2.09,3.16-3.7l5.74-17.74
				c1.28-3.96-0.9-8.21-4.85-9.49c-1.1-0.36-2.24-0.46-3.39-0.29c-3.29,0.48-5.91,3.32-6.23,6.77l-0.65,7.05
				c-0.05,0.59-0.57,1.03-1.16,0.97c-0.59-0.05-1.02-0.57-0.97-1.16l0.65-7.05c0.41-4.49,3.73-8.07,8.05-8.69
				c1.48-0.21,2.94-0.08,4.36,0.38c5.08,1.64,7.87,7.11,6.23,12.19l-5.74,17.74c-0.7,2.16-2.2,3.92-4.22,4.95
				C89.53,172.48,88.21,172.79,86.88,172.79z"/>
		</g>
	</g>
	<path class="st1" d="M64.26,165.9c-13.61,0-28.53-1.24-36.07-10.46c-0.37-0.46-0.31-1.13,0.15-1.5c0.46-0.37,1.13-0.31,1.51,0.15
		c6.97,8.52,21.31,9.67,34.41,9.67c0.59,0,1.07,0.48,1.07,1.07S64.85,165.9,64.26,165.9z"/>
	<g>
		<g>
			<circle class="st4" cx="15.64" cy="28" r="14.57"/>
			<path class="st1" d="M15.64,43.64C7.01,43.64,0,36.63,0,28s7.01-15.64,15.64-15.64S31.27,19.38,31.27,28S24.26,43.64,15.64,43.64
				z M15.64,14.51c-7.44,0-13.5,6.06-13.5,13.5c0,7.44,6.06,13.5,13.5,13.5c7.44,0,13.5-6.06,13.5-13.5
				C29.13,20.56,23.08,14.51,15.64,14.51z"/>
		</g>
		<g>
			<circle class="st4" cx="76.21" cy="15.72" r="14.57"/>
			<path class="st1" d="M76.21,31.35c-8.62,0-15.64-7.01-15.64-15.64S67.59,0.08,76.21,0.08s15.64,7.01,15.64,15.64
				S84.83,31.35,76.21,31.35z M76.21,2.22c-7.44,0-13.5,6.06-13.5,13.5c0,7.44,6.06,13.5,13.5,13.5c7.44,0,13.5-6.06,13.5-13.5
				C89.71,8.27,83.65,2.22,76.21,2.22z"/>
		</g>
	</g>
	<g>
		<path class="st5" d="M92.79,46.91C84.56,25.66,76.73,3.62,43.51,10.29c-31.59,6.34-31.95,30.02-31.33,52.8
			c0.59,22.17,25.28,32.64,47.6,28.23C82.06,86.77,100.79,67.59,92.79,46.91z"/>
		<path class="st1" d="M49.61,93.37c-10.51,0-20.56-3.11-27.71-8.83c-6.83-5.46-10.56-12.87-10.79-21.44
			c-0.32-11.94-0.28-23.46,3.67-33C19.39,18.99,28.72,12.16,43.3,9.24c33.48-6.72,41.89,15.04,50.02,36.08l0.46,1.2
			c3.09,7.99,2.51,16.27-1.68,23.94c-5.83,10.66-18.13,19.05-32.11,21.9C56.53,93.04,53.05,93.37,49.61,93.37z M54.85,10.12
			c-3.42,0-7.11,0.41-11.13,1.21c-13.83,2.77-22.65,9.18-26.96,19.6c-3.79,9.16-3.83,20.42-3.51,32.12
			c0.21,7.91,3.67,14.77,9.99,19.82c9.01,7.2,22.93,10.03,36.33,7.38c13.38-2.72,25.12-10.7,30.66-20.83
			c3.88-7.1,4.42-14.76,1.57-22.14l-0.46-1.2c-3.93-10.18-8-20.71-14.96-27.61C70.71,12.87,63.73,10.12,54.85,10.12z"/>
	</g>
	<g>
		<path class="st5" d="M35.93,13.44c0,0-3.09-7.99,1.36-8.88s4.33,5.09,4.33,5.09s1.21-7.19,3.94-6.75
			c2.74,0.44,1.18,5.89,1.18,5.89s5.27-2.22,5.97,1.28s-4.86,0.98-4.86,0.98"/>
		<path class="st1" d="M35.93,14.51c-0.43,0-0.83-0.26-1-0.68c-0.22-0.56-2.07-5.54-0.48-8.42c0.55-1,1.46-1.66,2.63-1.89
			c1.8-0.36,2.97,0.23,3.64,0.79c0.39,0.33,0.7,0.71,0.95,1.13c0.8-2.01,2.1-3.9,4.06-3.59c0.8,0.13,1.46,0.56,1.89,1.25
			c0.72,1.14,0.69,2.84,0.52,4.15c1.19-0.26,2.72-0.38,3.92,0.25c0.89,0.47,1.48,1.29,1.69,2.37c0.29,1.44-0.24,2.21-0.73,2.6
			c-1.57,1.25-4.69-0.02-5.62-0.44c-0.54-0.24-0.78-0.88-0.53-1.42c0.24-0.54,0.88-0.78,1.42-0.53c1.5,0.68,3.08,0.94,3.4,0.71
			c-0.01,0,0.04-0.14-0.03-0.5c-0.12-0.58-0.38-0.78-0.59-0.9c-0.95-0.51-2.9-0.03-3.91,0.39c-0.38,0.16-0.82,0.09-1.12-0.19
			c-0.31-0.27-0.43-0.7-0.32-1.09c0.36-1.27,0.63-3.43,0.11-4.26c-0.11-0.17-0.23-0.25-0.43-0.28c-0.96-0.16-2.23,3.03-2.71,5.87
			c-0.09,0.55-0.6,0.94-1.16,0.89c-0.56-0.05-0.98-0.53-0.97-1.09c0.01-0.73-0.18-2.83-1.21-3.69c-0.45-0.38-1.05-0.48-1.84-0.33
			c-0.56,0.11-0.93,0.37-1.18,0.82c-0.94,1.7,0.15,5.44,0.6,6.62c0.21,0.55-0.06,1.17-0.61,1.38
			C36.19,14.48,36.06,14.51,35.93,14.51z"/>
	</g>
	<path class="st4" d="M33.1,33.02c-8.14,1.63-13.42,9.56-11.78,17.7c1.63,8.14,10.14,18.13,17.54,11.57
		c-3.11,2.76,8.82-10.66-8.69-5.68c-3.99,1.14,1.82-8.03,5.89-8.85c4.07-0.82,6.71-4.78,5.89-8.85
		C41.14,34.84,37.17,32.2,33.1,33.02z"/>
	<path class="st4" d="M63.5,26.92c8.14-1.63,16.06,3.64,17.7,11.78s-2.36,20.64-11.72,17.44c3.93,1.34-12.25-6.43,5.83-8.59
		c4.12-0.49-4.78-6.71-8.85-5.89c-4.07,0.82-8.03-1.82-8.85-5.89C56.79,31.7,59.43,27.74,63.5,26.92z"/>
	<g>
		<g>
			<path class="st5" d="M35.78,27.27c0,0-8.07-1.69-13.87,6.45"/>
			<path class="st1" d="M35.78,27.27c-1.36,0.05-2.67,0.23-3.93,0.53c-1.26,0.32-2.49,0.71-3.63,1.29c-0.3,0.12-0.56,0.3-0.85,0.44
				c-0.29,0.15-0.57,0.3-0.83,0.48c-0.27,0.18-0.54,0.35-0.82,0.52c-0.26,0.19-0.52,0.39-0.78,0.58l-0.4,0.29
				c-0.13,0.1-0.24,0.22-0.37,0.32l-0.76,0.64c-0.5,0.43-0.96,0.92-1.5,1.36c0.31-0.6,0.64-1.21,1.03-1.78
				c0.43-0.53,0.82-1.12,1.33-1.58c0.25-0.24,0.49-0.49,0.75-0.72l0.83-0.63c0.27-0.22,0.58-0.39,0.88-0.57
				c0.31-0.17,0.6-0.37,0.92-0.5c1.26-0.62,2.64-0.98,4.03-1.12C33.07,26.69,34.49,26.79,35.78,27.27z"/>
		</g>
		<g>
			<path class="st5" d="M58.89,22.63c0,0,6.8-4.67,15.29,0.6"/>
			<path class="st1" d="M58.89,22.63c1.01-0.94,2.27-1.58,3.6-2c1.33-0.41,2.74-0.62,4.15-0.53c0.35,0,0.7,0.07,1.05,0.1
				c0.35,0.05,0.7,0.09,1.03,0.19l1.01,0.27c0.33,0.12,0.65,0.25,0.98,0.38c0.66,0.22,1.24,0.62,1.84,0.94
				c0.58,0.37,1.12,0.8,1.63,1.24c-0.67-0.2-1.27-0.47-1.9-0.68l-0.95-0.3c-0.16-0.04-0.31-0.11-0.47-0.15l-0.48-0.12
				c-0.32-0.07-0.63-0.15-0.95-0.24c-0.32-0.05-0.64-0.11-0.95-0.16c-0.32-0.07-0.63-0.1-0.95-0.12c-0.32-0.03-0.64-0.09-0.96-0.08
				c-1.28-0.09-2.56,0.02-3.85,0.21C61.44,21.82,60.17,22.15,58.89,22.63z"/>
		</g>
	</g>
	<path class="st1" d="M53.73,60.53l2.79-0.56c1.49-0.3,2.75,1.13,2.26,2.57l-0.91,2.7l0,0c-0.89,2.64-4.31,3.33-6.15,1.24l0,0
		l-1.88-2.14c-1.01-1.14-0.4-2.94,1.1-3.24L53.73,60.53z"/>
	<path class="st6" d="M57.5,77.56"/>
	<g>
		<g>
			<g>
				<path class="st5" d="M38.56,60.37c-4.09,0.82-8.18-2.4-9.14-7.2c-0.32-1.57-0.25-3.12,0.12-4.52c-1.13,1.88-1.59,4.32-1.09,6.83
					c0.96,4.79,5.05,8.01,9.14,7.2c2.74-0.55,4.78-2.79,5.54-5.64C42.1,58.74,40.51,59.98,38.56,60.37z"/>
				<path d="M36.32,63.24c-3.83,0-7.39-3.18-8.29-7.67c-0.5-2.5-0.09-5.1,1.14-7.13c0.11-0.18,0.34-0.26,0.53-0.17
					c0.2,0.08,0.3,0.3,0.25,0.5c-0.36,1.38-0.4,2.87-0.11,4.32c0.45,2.22,1.6,4.16,3.24,5.45c1.63,1.28,3.54,1.78,5.39,1.41
					c1.76-0.36,3.28-1.47,4.28-3.13c0.11-0.18,0.34-0.26,0.53-0.17c0.2,0.08,0.3,0.3,0.25,0.5c-0.82,3.11-3.07,5.39-5.87,5.95
					C37.22,63.19,36.77,63.24,36.32,63.24z M28.82,51.85c-0.2,1.15-0.18,2.36,0.06,3.55c0.91,4.55,4.79,7.63,8.63,6.86
					c1.66-0.33,3.1-1.36,4.09-2.84c-0.87,0.68-1.87,1.15-2.95,1.37c0,0,0,0,0,0c-2.1,0.42-4.26-0.14-6.09-1.57
					c-1.81-1.42-3.07-3.54-3.55-5.96C28.91,52.79,28.85,52.32,28.82,51.85z M38.56,60.37L38.56,60.37L38.56,60.37z"/>
			</g>
			<g>
				<path d="M38.56,60.37c1.95-0.39,3.54-1.63,4.57-3.33c0.37-1.4,0.43-2.94,0.12-4.52c-0.96-4.79-5.05-8.01-9.14-7.2
					c-1.95,0.39-3.54,1.63-4.57,3.33c-0.37,1.4-0.43,2.94-0.12,4.52C30.39,57.97,34.48,61.19,38.56,60.37z"/>
				<path d="M37.29,60.93c-3.83,0-7.38-3.18-8.29-7.67c-0.32-1.58-0.28-3.2,0.12-4.71l0.05-0.11c1.13-1.88,2.86-3.13,4.85-3.53
					c4.31-0.86,8.63,2.52,9.64,7.53c0.32,1.58,0.28,3.2-0.12,4.71l-0.05,0.11c-1.13,1.88-2.86,3.13-4.85,3.53l0,0
					C38.2,60.88,37.74,60.93,37.29,60.93z M29.94,48.83c-0.35,1.36-0.38,2.84-0.09,4.26c0.91,4.55,4.79,7.63,8.63,6.86l0,0
					c1.74-0.35,3.25-1.44,4.26-3.08c0.35-1.36,0.38-2.84,0.09-4.26c-0.91-4.55-4.79-7.63-8.63-6.86
					C32.46,46.09,30.95,47.19,29.94,48.83z"/>
			</g>
			<circle class="st5" cx="35.71" cy="49.71" r="3.2"/>
			<circle class="st5" cx="40.81" cy="53.58" r="1.6"/>
		</g>
		<path d="M28.05,53.45c-3.01,0.68-4.91-0.52-4.91-0.52s2.67,0.77,6.09-4.4"/>
	</g>
	<g>
		<g>
			<g>
				<path class="st5" d="M69.15,54.23c4.09-0.82,6.61-5.37,5.66-10.16c-0.32-1.57-0.97-2.98-1.85-4.12
					c1.77,1.29,3.13,3.37,3.64,5.88c0.96,4.79-1.57,9.34-5.66,10.16c-2.74,0.55-5.49-0.72-7.29-3.07
					C65.26,54.1,67.21,54.62,69.15,54.23z"/>
				<path d="M69.67,56.54c-2.37,0-4.72-1.22-6.36-3.37c-0.13-0.17-0.11-0.41,0.03-0.56c0.15-0.15,0.39-0.17,0.56-0.05
					c1.58,1.15,3.41,1.59,5.17,1.24l0,0c3.84-0.77,6.23-5.11,5.32-9.66c-0.29-1.45-0.91-2.82-1.77-3.95
					c-0.13-0.17-0.12-0.41,0.03-0.56c0.15-0.15,0.39-0.17,0.56-0.05c1.91,1.4,3.3,3.64,3.8,6.14c0.49,2.42,0.14,4.85-0.98,6.86
					c-1.13,2.03-2.91,3.38-5.01,3.8C70.57,56.5,70.12,56.54,69.67,56.54z M65.97,54.52c1.49,0.99,3.22,1.38,4.88,1.05
					c1.85-0.37,3.43-1.57,4.43-3.38c1.02-1.83,1.33-4.06,0.89-6.28c-0.24-1.19-0.69-2.31-1.31-3.29c0.15,0.44,0.28,0.9,0.37,1.37
					c1,5.01-1.68,9.8-5.99,10.66c0,0,0,0,0,0C68.15,54.87,67.04,54.82,65.97,54.52z M69.15,54.23L69.15,54.23L69.15,54.23z"/>
			</g>
			<g>
				<path d="M69.15,54.23c-1.95,0.39-3.89-0.14-5.5-1.31c-0.88-1.15-1.54-2.55-1.85-4.12c-0.96-4.79,1.57-9.34,5.66-10.16
					c1.95-0.39,3.89,0.14,5.5,1.31c0.88,1.15,1.54,2.55,1.85,4.12C75.77,48.86,73.24,53.41,69.15,54.23z"/>
				<path d="M67.88,54.79c-1.56,0-3.11-0.52-4.47-1.52l-0.09-0.08c-0.95-1.23-1.61-2.72-1.93-4.3c-0.49-2.42-0.14-4.85,0.98-6.86
					c1.13-2.03,2.91-3.38,5.01-3.8c1.99-0.4,4.07,0.09,5.83,1.39l0.09,0.08c0.95,1.23,1.61,2.72,1.93,4.3
					c1,5.01-1.68,9.8-5.99,10.66h0C68.79,54.74,68.33,54.79,67.88,54.79z M63.96,52.61c1.56,1.12,3.37,1.55,5.11,1.2
					c3.84-0.77,6.23-5.11,5.32-9.66c-0.29-1.43-0.89-2.78-1.73-3.9c-1.56-1.12-3.38-1.55-5.11-1.2c-1.85,0.37-3.42,1.57-4.43,3.38
					c-1.02,1.83-1.33,4.06-0.89,6.28C62.51,50.14,63.11,51.49,63.96,52.61z"/>
			</g>
			<circle class="st5" cx="67.68" cy="43.29" r="3.2"/>
			<circle class="st5" cx="64.47" cy="48.83" r="1.6"/>
		</g>
		<path d="M76.19,43.79c3.04-0.54,4.33-2.37,4.33-2.37s-2.17,1.74-7.32-1.71"/>
	</g>
	<g>
		<g>
			<path class="st7" d="M99.16,77.11l18.34,3.47c3.71,0.7,5.61,4.87,3.7,8.13l-15.93,27.21l-7.48,12.78
				c-4.15,7.08-14.89,5.05-16.17-3.05L79.31,111l-4.9-31.15c-0.59-3.73,2.7-6.92,6.41-6.22L99.16,77.11z"/>
			<path class="st1" d="M90.29,134.09c-0.62,0-1.25-0.06-1.88-0.18c-4.12-0.78-7.21-3.96-7.86-8.11l-7.2-45.78
				c-0.33-2.13,0.36-4.21,1.91-5.71c1.55-1.5,3.65-2.13,5.76-1.73l36.67,6.94c2.12,0.4,3.84,1.75,4.73,3.71
				c0.89,1.96,0.78,4.15-0.31,6.01L98.7,129.23C96.9,132.3,93.73,134.09,90.29,134.09z M79.79,74.61c-1.13,0-2.2,0.43-3.04,1.24
				c-1.04,1.01-1.51,2.41-1.28,3.84l7.2,45.78c0.62,3.93,3.58,5.85,6.15,6.34c2.57,0.48,6.03-0.22,8.04-3.66l23.41-39.98
				c0.73-1.25,0.81-2.72,0.21-4.04c-0.6-1.32-1.76-2.23-3.18-2.5l-36.67-6.94C80.34,74.64,80.07,74.61,79.79,74.61z"/>
		</g>
		<g>
			<path class="st8" d="M123.89,76.65l0.05-6.09c0.02-2.09-0.7-4.04-1.93-5.58c1.3-10.52-5.78-20.38-16.34-22.38
				c-10.56-2-20.75,4.6-23.38,14.87c-1.7,0.99-3.08,2.54-3.83,4.49l-2.18,5.69c-1.97,5.16,1.2,10.84,6.63,11.87l15.04,2.85
				l0.38,0.07l15.04,2.85C118.81,86.3,123.85,82.17,123.89,76.65z"/>
			<path class="st1" d="M115.03,86.5c-0.61,0-1.23-0.06-1.85-0.17l-30.47-5.76c-2.9-0.55-5.39-2.34-6.82-4.92
				c-1.44-2.58-1.66-5.63-0.6-8.38l2.18-5.69c0.76-1.97,2.13-3.66,3.91-4.8c2.95-10.62,13.62-17.29,24.5-15.23
				c10.88,2.06,18.38,12.17,17.25,23.13c1.23,1.71,1.9,3.79,1.88,5.9l-0.05,6.09c-0.03,2.95-1.35,5.71-3.62,7.59
				C119.54,85.72,117.32,86.5,115.03,86.5z M101.92,43.31c-8.59,0-16.39,5.82-18.58,14.42l-0.11,0.43l-0.39,0.23
				c-1.54,0.89-2.74,2.3-3.37,3.95l-2.18,5.69c-0.83,2.16-0.65,4.56,0.47,6.58c1.13,2.02,3.08,3.43,5.35,3.86l30.46,5.76
				c2.28,0.43,4.61-0.17,6.4-1.64c1.79-1.47,2.82-3.64,2.84-5.95l0.05-6.09c0.01-1.77-0.59-3.51-1.69-4.91l-0.28-0.35l0.06-0.44
				c1.24-10.01-5.56-19.32-15.48-21.2C104.29,43.42,103.1,43.31,101.92,43.31z"/>
		</g>
	</g>
	<g>
		<path class="st9" d="M122.94,60.43c-1.1-10.6-10.06-18.87-20.96-18.87s-19.1,5.6-20.2,16.21l0,0c-1.84,1.69-1.65,4.71,0.45,6.07
			c0.83,0.53,1.84,0.91,3.05,0.91c5.9,0,2.88,4.53,6.69,4.53s3.27-3.75,6.37-3.75c3.09,0,2.28-1.25,4.55-1.25s0.99,4.74,4.56,4.74
			s1.9-3.41,3.75-3.41c1.85,0,1.35,5.52,4.4,5.52c3.05,0,1.25-3.46,3.6-3.46c2.22,0,3.8-0.44,3.96-6.22h0.01
			C123.17,61.44,122.94,60.43,122.94,60.43z"/>
		<path class="st1" d="M115.59,72.19c-2.48,0-3.29-2.41-3.83-4c-0.15-0.44-0.36-1.07-0.55-1.39c-0.04,0.12-0.07,0.25-0.1,0.36
			c-0.27,1.02-0.77,2.92-3.67,2.92c-2.76,0-3.48-2.19-3.92-3.5c-0.28-0.85-0.44-1.24-0.64-1.24c-0.72,0-0.9,0.12-1.26,0.37
			c-0.71,0.48-1.45,0.88-3.29,0.88c-0.9,0-1.27,0.43-1.96,1.31c-0.79,1.03-1.88,2.44-4.41,2.44c-2.43,0-3.03-1.56-3.42-2.59
			c-0.43-1.13-0.74-1.94-3.27-1.94c-1.3,0-2.53-0.36-3.64-1.08c-1.26-0.81-2.06-2.15-2.19-3.66c-0.12-1.41,0.35-2.77,1.29-3.8
			c1.26-10.37,9.35-16.79,21.22-16.79c11.36,0,20.81,8.49,22.02,19.76c0.2,0.85,0.28,1.23,0.22,1.49c-0.22,5.83-2.01,6.99-5.02,6.99
			c-0.16,0-0.21,0.03-0.21,0.03c-0.08,0.08-0.19,0.48-0.25,0.73C118.49,70.43,118.05,72.19,115.59,72.19z M111.2,64.53
			c1.58,0,2.12,1.58,2.59,2.98c0.6,1.76,1,2.55,1.81,2.55c0.77,0,0.83-0.17,1.07-1.09c0.21-0.83,0.6-2.37,2.53-2.37
			c1.59,0,2.74,0,2.89-5.11c-0.06-0.28-0.19-0.81-0.19-0.81c-0.01-0.04-0.02-0.09-0.02-0.13c-1.06-10.21-9.62-17.91-19.9-17.91
			c-10.99,0-18.14,5.7-19.14,15.26c-0.03,0.26-0.15,0.5-0.34,0.68c-0.65,0.6-0.98,1.45-0.91,2.34c0.07,0.85,0.52,1.59,1.22,2.04
			c0.76,0.49,1.59,0.74,2.48,0.74c4.01,0,4.77,2,5.27,3.32c0.36,0.95,0.46,1.21,1.42,1.21c1.48,0,2-0.67,2.72-1.61
			c0.74-0.96,1.66-2.15,3.65-2.15c1.33,0,1.68-0.24,2.09-0.51c0.59-0.41,1.19-0.74,2.46-0.74c1.78,0,2.32,1.63,2.67,2.7
			c0.49,1.48,0.78,2.03,1.89,2.03c1.25,0,1.36-0.41,1.6-1.32C109.24,65.89,109.59,64.53,111.2,64.53z"/>
	</g>
	<g>
		<path class="st4" d="M63.74,112.1l10.71,0.07c6.27-0.9,12.15-3.59,16.93-7.75l0,0c3.82-3.32,9.66-2.66,12.64,1.42l0,0
			c2.87,3.92,1.95,9.43-2.04,12.2l-7.08,4.93c-3.91,2.72-8.36,4.56-13.04,5.39l-16.3,1.5c0,0-22.39,5.31-37.93-9.61"/>
		<path class="st1" d="M56.15,131.82c-8.15,0-19.95-1.84-29.27-10.79c-0.43-0.41-0.44-1.09-0.03-1.51c0.41-0.43,1.09-0.44,1.51-0.03
			c14.92,14.33,36.72,9.4,36.94,9.34c0.05-0.01,0.1-0.02,0.15-0.02l16.25-1.5c4.48-0.8,8.83-2.61,12.58-5.21l7.08-4.93
			c1.69-1.17,2.81-2.94,3.15-4.97c0.34-2.03-0.14-4.06-1.36-5.72c-1.26-1.73-3.13-2.81-5.26-3.05c-2.13-0.24-4.2,0.4-5.82,1.81
			c-4.95,4.3-10.99,7.07-17.48,8c-0.05,0.01-0.11,0.01-0.16,0.01l-10.71-0.07c-0.59,0-1.07-0.49-1.06-1.08
			c0-0.59,0.48-1.06,1.07-1.06c0,0,0,0,0.01,0l10.63,0.07c6.05-0.89,11.68-3.47,16.3-7.49c2.05-1.78,4.77-2.62,7.46-2.32
			c2.69,0.3,5.15,1.73,6.75,3.91c1.56,2.13,2.18,4.74,1.74,7.34c-0.44,2.6-1.87,4.86-4.03,6.37l-7.08,4.93
			c-4.01,2.79-8.67,4.72-13.47,5.57c-0.03,0.01-0.06,0.01-0.09,0.01l-16.23,1.5C65.12,131.06,61.39,131.82,56.15,131.82z"/>
	</g>
	<path class="st10" d="M67.3,74.39L67.3,74.39l-9.53,4.11l-11.21,0.06c2.65,4.37,7.31,6.88,11.98,5.94
		C63.21,83.56,66.54,79.44,67.3,74.39L67.3,74.39L67.3,74.39z"/>
	<g>
		<g>
			<path class="st11" d="M46.56,78.55c1.54,1.84,3.34,3.35,5.39,4.29c2.04,0.93,4.29,1.26,6.43,0.82c2.14-0.42,4.09-1.59,5.61-3.23
				c1.52-1.66,2.61-3.74,3.32-6.03c0,2.4-0.78,4.86-2.28,6.88c-1.48,2.03-3.76,3.57-6.3,4.06c-2.54,0.52-5.24-0.01-7.38-1.32
				C49.17,82.73,47.49,80.76,46.56,78.55z"/>
		</g>
		<g>
			<path class="st11" d="M67.3,74.39c-1.36,1.23-2.94,2.19-4.6,2.98c-1.67,0.78-3.44,1.35-5.24,1.72c-1.81,0.36-3.66,0.51-5.5,0.44
				c-1.84-0.08-3.66-0.37-5.39-0.98c1.83-0.1,3.6-0.18,5.36-0.37c1.75-0.18,3.49-0.43,5.2-0.77c1.72-0.34,3.41-0.77,5.1-1.29
				C63.91,75.61,65.58,75,67.3,74.39z"/>
		</g>
	</g>
</g>
</svg>
