<?xml version="1.0" encoding="utf-8"?>
<!-- Generator: Adobe Illustrator 26.0.3, SVG Export Plug-In . SVG Version: 6.00 Build 0)  -->
<svg version="1.1" id="Layer_1" xmlns="http://www.w3.org/2000/svg" xmlns:xlink="http://www.w3.org/1999/xlink" x="0px" y="0px"
	 viewBox="0 0 383.3 172.8" style="enable-background:new 0 0 383.3 172.8;" xml:space="preserve">
<style type="text/css">
	.st0{fill:none;}
	.st1{enable-background:new    ;}
	.st2{fill:#504A4E;}
	.st3{fill:#F3AAB9;}
	.st4{fill:#FFFFFF;}
	.st5{fill:#FFFFFF;stroke:#000000;stroke-width:2;stroke-miterlimit:10;}
	.st6{fill:#FCD395;}
	.st7{fill:#F5B6BB;}
	.st8{fill:#CEE8E8;}
	.st9{fill:#F9D4D6;}
	.st10{fill:#EF808E;}
</style>
<rect x="153.4" y="58.8" class="st0" width="295.6" height="55.4"/>
<g class="st1">
	<path class="st2" d="M181,99c-0.8,0.9-2,1.4-3.1,1.4c-0.2,0-0.3,0-0.4,0c-1.6-0.2-3.2-1.2-4.1-2.7c-1-1.5-3.7-4.4-4.9-5.7
		c-1.4,1.6-4.6,5.2-5.8,6.6c-1,1.1-2.8,1.9-4.6,1.9c-1.3-0.1-2.2-0.5-2.8-1.2c-1.1-1.4-1.5-3.9,0.8-6.5c1.5-1.7,5.2-6,6.6-7.6
		l-7.3-8.8c-0.2-0.2-1.1-1.5-0.9-2.8c0.1-0.2,0.3-2.3,1.9-3.5c0.8-0.6,1.7-0.8,2.8-0.6c2.9,0.5,7.4,5.9,9.3,8.3
		c1.9-2.7,6.5-8.4,9.7-8.1c1.3,0.1,2.2,0.6,2.9,1.4c1.2,1.5,1,3.5,1,3.7s-0.4,2.9-4.1,6.6c-2,2-3,3.1-3.5,3.7l6,7.3
		C180.4,92.6,183.4,96.3,181,99z"/>
	<path class="st2" d="M184.1,63.5c0-2.5,1.6-3.7,4.7-3.7h0.1c0.1,0,4.6,0.8,4.6,3.8c0,2.9-2.8,4.3-4.7,4.3
		C186.8,67.8,184.1,66.4,184.1,63.5z M192.6,70.7c0.5,0.6,0.8,1.4,0.8,2.3c0,1.3-0.1,3.8-0.3,6.8c-0.2,5.4-0.5,12.1-0.3,14.9
		c0.1,1.7-0.2,3-0.8,3.8c-0.8,1-1.9,1.1-2.4,1.1c-0.1,0-0.1,0-0.2,0c-0.1,0-0.2,0-0.4,0c-0.3,0-0.6-0.1-1-0.4
		c-1.1-1-1.9-4.4-2.4-10.2c-0.2-2.2-0.4-4.2-0.6-6c-0.7-5.8-1.2-10.1,0.4-12.3c0.7-1,1.9-1.6,3.5-1.6h0.1
		C189.1,69.3,191.4,69.3,192.6,70.7z"/>
	<path class="st2" d="M220.1,96.9c0,0-3.1,2.9-11.4,3.4c-8.2,0.4-12.2-5.9-12.6-13.3c-0.4-7.4,4.8-16.4,15.2-16.9
		c4.3-0.2,7,1.6,8.6,3.8c0,0,0.4-3.6,3.5-3.9c3.2-0.3,3.8,2.3,3.3,5.8c-0.5,3.5-0.8,12.6,0.1,20.2
		C227.8,103.6,219.9,101.6,220.1,96.9z M217.4,85.4c-0.5-5.6-4.1-7.7-7.7-7.4c0,0-6.5,0.4-5.9,7.7c0.6,7.3,5.6,7.6,7.4,7.4
		C212.9,93,217.9,91.1,217.4,85.4z"/>
	<path class="st2" d="M257.3,84.5c0,14.9-12.6,15.8-13.9,15.8c-1.3,0-13.4-0.8-13.4-14.8c0-14,10-15.7,13.9-15.7
		C243.8,69.8,257.3,69.6,257.3,84.5z M250.5,84.8c-0.5-5.7-4.1-7.7-7.8-7.4c0,0-0.8,0.1-1.9,0.4c-1.9,0.7-4.4,2.6-4,7.3
		c0.5,6.5,4.6,7.4,6.7,7.4c0.3,0,0.5,0,0.7,0C245.9,92.4,251,90.5,250.5,84.8z"/>
	<path class="st2" d="M285.9,78.5c-1.7,3.4-4.6,2.6-7,2c-1.3-0.4-2.8-0.8-4.4-0.8c-0.7,0-5.9,0.2-5.9,6.8c0,2.5,0.7,4.2,2.2,4.9
		c1.9,0.9,4.6,0.2,6-0.9c2.3-1.9,5.2-1.4,6.6,0.2c1.1,1.3,1.4,3.4-0.4,5.2c-2.8,2.9-5.6,4.7-10.3,4.7c-0.2,0-0.4,0-0.5,0
		c-5.3-0.2-12.9-4.8-12.9-14.6c0-9.5,8.1-15.8,15.7-15.8c5.2,0,9.4,1.5,10.9,4C286.6,75.4,286.7,77,285.9,78.5z"/>
	<path class="st2" d="M315.5,84.5c0,14.9-12.6,15.8-13.9,15.8c-1.3,0-13.4-0.8-13.4-14.8c0-14,10-15.7,13.9-15.7
		C302,69.8,315.5,69.6,315.5,84.5z M308.7,84.8c-0.5-5.7-4.1-7.7-7.8-7.4c0,0-0.8,0.1-1.9,0.4c-1.9,0.7-4.4,2.6-4,7.3
		c0.5,6.5,4.6,7.4,6.7,7.4c0.3,0,0.5,0,0.7,0C304.1,92.4,309.2,90.5,308.7,84.8z"/>
	<path class="st2" d="M336.5,63.5c0-2.5,1.6-3.7,4.7-3.7h0.1c0.1,0,4.6,0.8,4.6,3.8c0,2.9-2.8,4.3-4.7,4.3
		C339.3,67.8,336.5,66.4,336.5,63.5z M345.1,70.7c0.5,0.6,0.8,1.4,0.8,2.3c0,1.3-0.1,3.8-0.3,6.8c-0.2,5.4-0.5,12.1-0.3,14.9
		c0.1,1.7-0.2,3-0.8,3.8c-0.8,1-1.9,1.1-2.4,1.1c-0.1,0-0.1,0-0.2,0c-0.1,0-0.2,0-0.4,0c-0.3,0-0.6-0.1-1-0.4
		c-1.1-1-1.9-4.4-2.4-10.2c-0.2-2.2-0.4-4.2-0.6-6c-0.7-5.8-1.2-10.1,0.4-12.3c0.7-1,1.9-1.6,3.5-1.6h0.1
		C341.6,69.3,343.9,69.3,345.1,70.7z"/>
	<path class="st2" d="M355,110.8c-2.2,2.3-3.8,3.4-7.9,3.4c-6.1,0-11.4-1.6-12.8-7.4c-1-4.5,0.7-4.4,2.2-5.1
		c0.7-0.4,2.6-0.7,3.6,0.1c0.7,0.7,1,1.4,1.3,2.5c0.7,2.6,3.4,2.9,5.6,2.3c2.2-0.6,4.3-2.6,4.3-8.2c0-1.6-0.4-4.2-0.9-7.1
		c-1-6.7-2.3-17,0-20c0.5-0.7,1.3-1.1,2.2-1.3c0.2,0,1.7-0.2,3.2,1.1c2.2,1.8,3.2,10.3,3.2,15.7c0,1.8,0.1,0.8,0.1,2.9
		C359.5,98.1,359.9,105.8,355,110.8z M348.3,64.2c0-2.5,1.6-3.7,4.6-3.7h0.1c0.1,0,4.5,0.8,4.5,3.8c0,2.9-2.7,4.3-4.6,4.3
		C351.1,68.5,348.3,67.1,348.3,64.2z"/>
	<path class="st2" d="M373.8,99.8c-8.9,1-11.6-3.2-12.2-6.3c-0.5-3.1,1.4-4.1,1.9-4.6c0.5-0.5,4.2-2.3,5.8,1.1
		c1.5,3.4,3.7,3.1,3.7,3.1s2.9,0.2,2.9-3.5c0-3.7-10.1-8.6-10.3-12.4c-0.1-3.8,1.3-6.8,7.1-7.6c5.8-0.8,9.5,1.5,9.5,4.9
		c-0.1,3.4-2.9,3.4-2.9,3.4c-1.3,0.2-2.5-0.5-2.5-0.5c-1.7-1.4-2.8,0-2.6,0.9c0.2,0.9,3.5,3.2,3.5,3.2c4.5,3.5,5.3,6.1,5.6,8.8
		C383.6,93,382.7,98.7,373.8,99.8z"/>
</g>
<g>
	<g>
		<circle class="st3" cx="25.7" cy="150.8" r="7.4"/>
		<path class="st2" d="M25.7,159.2c-4.7,0-8.5-3.8-8.5-8.5s3.8-8.5,8.5-8.5s8.5,3.8,8.5,8.5S30.4,159.2,25.7,159.2z M25.7,144.5
			c-3.5,0-6.3,2.8-6.3,6.3c0,3.5,2.8,6.3,6.3,6.3s6.3-2.8,6.3-6.3C32,147.3,29.2,144.5,25.7,144.5z"/>
	</g>
	<g>
		<g>
			<polyline class="st3" points="95.1,134.9 113.2,132.8 115.5,152.1 97.4,154.3 			"/>
			<polygon class="st2" points="97.5,155.3 97.2,153.2 114.3,151.2 112.3,134 95.2,136 94.9,133.9 114.2,131.6 116.7,153.1 			"/>
		</g>
		<g>
			<path class="st3" d="M107.7,137.2l-2.1-6c-1.2-3.3,0-7.1,2.9-9.1c1-0.6,2.1-1,3.3-1.2l0,0c4.3-0.5,8.1,2.6,8.7,6.8l2,16.7
				c0.4,3.7-2.2,7-5.9,7.5l-8.8,1"/>
			<path class="st2" d="M107.8,154.1c-0.5,0-1-0.4-1.1-0.9c-0.1-0.6,0.3-1.1,0.9-1.2l8.8-1c1.5-0.2,2.8-0.9,3.8-2.1
				c0.9-1.2,1.3-2.7,1.2-4.2l-2-16.8c-0.4-3.7-3.8-6.3-7.5-5.9c-1,0.1-2,0.5-2.8,1c-2.5,1.6-3.6,4.9-2.5,7.8l2.1,6
				c0.2,0.6-0.1,1.2-0.7,1.4c-0.6,0.2-1.2-0.1-1.4-0.6l-2.1-6c-1.4-3.9,0-8.1,3.4-10.3c1.1-0.7,2.4-1.2,3.8-1.3
				c4.8-0.6,9.3,2.9,9.8,7.8l2,16.7c0.2,2.1-0.3,4.1-1.6,5.7c-1.3,1.6-3.1,2.7-5.2,2.9l-8.8,1C107.9,154.1,107.8,154.1,107.8,154.1z
				"/>
		</g>
	</g>
	<g>
		<path class="st3" d="M65.6,129.9c0,0,17.7-18.6,32.3-17c-7.1-15.2-19.5-28.2-33.6-28.2c-27.6,0-30.4,17.5-36.6,35.6
			C43.2,135.2,65.6,129.9,65.6,129.9z"/>
		<path class="st2" d="M56.2,131.8c-8.1,0-20-1.8-29.3-10.8l-0.5-0.5l0.2-0.7c0.6-1.8,1.2-3.5,1.7-5.2c5.2-16,10.2-31.1,35.9-31.1
			c15.5,0,28,14.9,34.6,28.8l0.8,1.7l-1.9-0.2c-13.9-1.6-31.3,16.5-31.4,16.6l-0.2,0.2l-0.3,0.1C65.7,130.9,61.8,131.8,56.2,131.8z
			 M28.9,119.9c14,12.9,33.5,9.5,36.2,8.9c1-1,5.1-5.1,10.6-9c7.7-5.5,14.6-8.2,20.5-8.2c-6.5-12.8-17.9-26-31.9-26
			c-24.2,0-28.7,13.7-33.9,29.6C29.9,116.9,29.4,118.4,28.9,119.9z"/>
	</g>
	<g>
		<path class="st4" d="M65.6,129.9c0,0-22.4,5.3-37.9-9.6c-2.2,6.4-3.5,12.9-3.5,18.7c0,6.9,1.8,12,4.8,15.8
			c6.8,8.3,20,10.1,35.2,10.1c22.1,0,40.1-3.7,40.1-25.9c0-8-2.4-17.4-6.4-26.1C83.2,111.2,65.6,129.9,65.6,129.9z"/>
		<path class="st2" d="M64.3,165.9c-13.6,0-28.5-1.2-36.1-10.5c-3.4-4.1-5.1-9.7-5.1-16.5c0-5.8,1.2-12.4,3.5-19.1l0.5-1.6l1.2,1.2
			c14,13.4,34,9.9,36.6,9.4c2.2-2.3,18.8-18.7,33-17.1l0.6,0.1l0.2,0.5c4.2,9,6.5,18.4,6.5,26.5c0,10.7-4,18-12.3,22.2
			C86.6,164.4,77.8,165.9,64.3,165.9z M28.1,122.2c-1.9,5.9-2.9,11.7-2.9,16.8c0,6.4,1.5,11.4,4.6,15.1c7,8.5,21.3,9.7,34.4,9.7
			c13.1,0,21.7-1.4,27.8-4.5c7.5-3.8,11.2-10.5,11.2-20.3c0-7.6-2.2-16.5-6.1-25c-13.8-1-30.7,16.5-30.8,16.7l-0.2,0.2l-0.3,0.1
			C65.6,131,43.8,135.9,28.1,122.2z"/>
	</g>
	<g>
		<path class="st3" d="M78.4,100l10.7,0.1c6.3-0.9,12.2-3.6,16.9-7.8l0,0c3.8-3.3,9.7-2.7,12.6,1.4l0,0c2.9,3.9,1.9,9.4-2,12.2
			l-7.1,4.9c-3.9,2.7-8.4,4.6-13,5.4l-16.3,1.5"/>
		<path class="st2" d="M80.3,118.9l-0.2-2.1l16.2-1.5c4.5-0.8,8.8-2.6,12.6-5.2l7.1-4.9c1.7-1.2,2.8-2.9,3.2-5
			c0.3-2-0.1-4.1-1.4-5.7c-1.3-1.7-3.1-2.8-5.3-3.1c-2.1-0.2-4.2,0.4-5.8,1.8c-4.9,4.3-11,7.1-17.5,8l-0.1,0l-10.8-0.1l0-2.1L89,99
			c6.1-0.9,11.7-3.5,16.3-7.5c2.1-1.8,4.8-2.6,7.5-2.3c2.7,0.3,5.2,1.7,6.8,3.9c1.6,2.1,2.2,4.7,1.7,7.3s-1.9,4.9-4,6.4l-7.1,4.9
			c-4,2.8-8.7,4.7-13.5,5.6l-0.1,0L80.3,118.9z"/>
	</g>
	<path class="st2" d="M83.5,171l2.7-8.4c-6.2,1.7-13.7,2.2-21.7,2.2L83.5,171z"/>
	<path class="st3" d="M70.9,144.3c0,0-5.4-0.8-9.8,3.1c-5.5,5-14.7,12.6-30.1,9.4c0,0,0,0,0,0c7.2,6.5,19.4,8,33.2,8
		c0.1,0,0.1,0,0.2,0c8,0,15.5-0.5,21.7-2.2l3.9-12.1L70.9,144.3z"/>
	<g>
		<g>
			<polyline class="st3" points="64.2,164.8 83.5,171 90.1,150.5 70.9,144.3 			"/>
			<path class="st2" d="M83.5,172.1c-0.1,0-0.2,0-0.3-0.1l-19.2-6.2c-0.6-0.2-0.9-0.8-0.7-1.4c0.2-0.6,0.8-0.9,1.4-0.7l18.2,5.9
				l6-18.4l-18.2-5.9c-0.6-0.2-0.9-0.8-0.7-1.4c0.2-0.6,0.8-0.9,1.3-0.7l19.2,6.2c0.6,0.2,0.9,0.8,0.7,1.4l-6.6,20.5
				C84.3,171.8,83.9,172.1,83.5,172.1z"/>
		</g>
		<g>
			<path class="st3" d="M82.5,152.4l0.7-7.1c0.4-3.9,3.3-7.2,7.1-7.7c1.3-0.2,2.6-0.1,3.9,0.3l0,0c4.5,1.5,7,6.3,5.5,10.8l-5.7,17.7
				c-1.3,3.9-5.4,6-9.3,4.8l-9.3-3"/>
			<path class="st2" d="M86.9,172.8c-0.9,0-1.8-0.1-2.6-0.4l-9.3-3c-0.6-0.2-0.9-0.8-0.7-1.4c0.2-0.6,0.8-0.9,1.3-0.7l9.3,3
				c1.6,0.5,3.3,0.4,4.8-0.4c1.5-0.8,2.6-2.1,3.2-3.7l5.7-17.7c1.3-4-0.9-8.2-4.8-9.5c-1.1-0.4-2.2-0.5-3.4-0.3
				c-3.3,0.5-5.9,3.3-6.2,6.8l-0.7,7.1c-0.1,0.6-0.6,1-1.2,1c-0.6-0.1-1-0.6-1-1.2l0.7-7.1c0.4-4.5,3.7-8.1,8.1-8.7
				c1.5-0.2,2.9-0.1,4.4,0.4c5.1,1.6,7.9,7.1,6.2,12.2L95,166.9c-0.7,2.2-2.2,3.9-4.2,4.9C89.5,172.5,88.2,172.8,86.9,172.8z"/>
		</g>
	</g>
	<path class="st2" d="M64.3,165.9c-13.6,0-28.5-1.2-36.1-10.5c-0.4-0.5-0.3-1.1,0.1-1.5s1.1-0.3,1.5,0.1c7,8.5,21.3,9.7,34.4,9.7
		c0.6,0,1.1,0.5,1.1,1.1S64.8,165.9,64.3,165.9z"/>
	<g>
		<g>
			<circle class="st3" cx="15.6" cy="28" r="14.6"/>
			<path class="st2" d="M15.6,43.6C7,43.6,0,36.6,0,28s7-15.6,15.6-15.6s15.6,7,15.6,15.6S24.3,43.6,15.6,43.6z M15.6,14.5
				C8.2,14.5,2.1,20.6,2.1,28s6.1,13.5,13.5,13.5S29.1,35.5,29.1,28C29.1,20.6,23.1,14.5,15.6,14.5z"/>
		</g>
		<g>
			<circle class="st3" cx="76.2" cy="15.7" r="14.6"/>
			<path class="st2" d="M76.2,31.4c-8.6,0-15.6-7-15.6-15.6s7-15.6,15.6-15.6s15.6,7,15.6,15.6S84.8,31.4,76.2,31.4z M76.2,2.2
				c-7.4,0-13.5,6.1-13.5,13.5s6.1,13.5,13.5,13.5s13.5-6.1,13.5-13.5C89.7,8.3,83.7,2.2,76.2,2.2z"/>
		</g>
	</g>
	<g>
		<path class="st4" d="M92.8,46.9C84.6,25.7,76.7,3.6,43.5,10.3c-31.6,6.3-32,30-31.3,52.8c0.6,22.2,25.3,32.6,47.6,28.2
			C82.1,86.8,100.8,67.6,92.8,46.9z"/>
		<path class="st2" d="M49.6,93.4c-10.5,0-20.6-3.1-27.7-8.8c-6.8-5.5-10.6-12.9-10.8-21.4c-0.3-11.9-0.3-23.5,3.7-33
			C19.4,19,28.7,12.2,43.3,9.2c33.5-6.7,41.9,15,50,36.1l0.5,1.2c3.1,8,2.5,16.3-1.7,23.9C86.3,81.1,74,89.5,60,92.4
			C56.5,93,53,93.4,49.6,93.4z M54.8,10.1c-3.4,0-7.1,0.4-11.1,1.2c-13.8,2.8-22.6,9.2-27,19.6C13,40.1,12.9,51.3,13.2,63
			c0.2,7.9,3.7,14.8,10,19.8c9,7.2,22.9,10,36.3,7.4c13.4-2.7,25.1-10.7,30.7-20.8c3.9-7.1,4.4-14.8,1.6-22.1l-0.5-1.2
			c-3.9-10.2-8-20.7-15-27.6C70.7,12.9,63.7,10.1,54.8,10.1z"/>
	</g>
	<g>
		<path class="st4" d="M35.9,13.4c0,0-3.1-8,1.4-8.9s4.3,5.1,4.3,5.1s1.2-7.2,3.9-6.8c2.7,0.4,1.2,5.9,1.2,5.9s5.3-2.2,6,1.3
			s-4.9,1-4.9,1"/>
		<path class="st2" d="M35.9,14.5c-0.4,0-0.8-0.3-1-0.7c-0.2-0.6-2.1-5.5-0.5-8.4c0.5-1,1.5-1.7,2.6-1.9c1.8-0.4,3,0.2,3.6,0.8
			c0.4,0.3,0.7,0.7,1,1.1c0.8-2,2.1-3.9,4.1-3.6c0.8,0.1,1.5,0.6,1.9,1.2c0.7,1.1,0.7,2.8,0.5,4.1c1.2-0.3,2.7-0.4,3.9,0.2
			C53,8,53.5,8.8,53.8,9.9c0.3,1.4-0.2,2.2-0.7,2.6c-1.6,1.2-4.7,0-5.6-0.4c-0.5-0.2-0.8-0.9-0.5-1.4c0.2-0.5,0.9-0.8,1.4-0.5
			c1.5,0.7,3.1,0.9,3.4,0.7c0,0,0-0.1,0-0.5c-0.1-0.6-0.4-0.8-0.6-0.9c-1-0.5-2.9,0-3.9,0.4c-0.4,0.2-0.8,0.1-1.1-0.2
			c-0.3-0.3-0.4-0.7-0.3-1.1c0.4-1.3,0.6-3.4,0.1-4.3C45.7,4.1,45.6,4,45.4,4c-1-0.2-2.2,3-2.7,5.9c-0.1,0.6-0.6,0.9-1.2,0.9
			c-0.6-0.1-1-0.5-1-1.1c0-0.7-0.2-2.8-1.2-3.7c-0.5-0.4-1-0.5-1.8-0.3C37,5.7,36.6,6,36.3,6.4c-0.9,1.7,0.2,5.4,0.6,6.6
			c0.2,0.6-0.1,1.2-0.6,1.4C36.2,14.5,36.1,14.5,35.9,14.5z"/>
	</g>
	<path class="st3" d="M33.1,33c-8.1,1.6-13.4,9.6-11.8,17.7c1.6,8.1,10.1,18.1,17.5,11.6c-3.1,2.8,8.8-10.7-8.7-5.7
		c-4,1.1,1.8-8,5.9-8.8s6.7-4.8,5.9-8.8C41.1,34.8,37.2,32.2,33.1,33z"/>
	<path class="st3" d="M63.5,26.9c8.1-1.6,16.1,3.6,17.7,11.8s-2.4,20.6-11.7,17.4c3.9,1.3-12.2-6.4,5.8-8.6c4.1-0.5-4.8-6.7-8.8-5.9
		s-8-1.8-8.8-5.9S59.4,27.7,63.5,26.9z"/>
	<g>
		<g>
			<path class="st4" d="M35.8,27.3c0,0-8.1-1.7-13.9,6.5"/>
			<path class="st2" d="M35.8,27.3c-1.4,0-2.7,0.2-3.9,0.5c-1.3,0.3-2.5,0.7-3.6,1.3c-0.3,0.1-0.6,0.3-0.9,0.4
				c-0.3,0.1-0.6,0.3-0.8,0.5c-0.3,0.2-0.5,0.4-0.8,0.5c-0.3,0.2-0.5,0.4-0.8,0.6l-0.4,0.3c-0.1,0.1-0.2,0.2-0.4,0.3l-0.8,0.6
				c-0.5,0.4-1,0.9-1.5,1.4c0.3-0.6,0.6-1.2,1-1.8c0.4-0.5,0.8-1.1,1.3-1.6c0.2-0.2,0.5-0.5,0.8-0.7l0.8-0.6
				c0.3-0.2,0.6-0.4,0.9-0.6c0.3-0.2,0.6-0.4,0.9-0.5c1.3-0.6,2.6-1,4-1.1C33.1,26.7,34.5,26.8,35.8,27.3z"/>
		</g>
		<g>
			<path class="st4" d="M58.9,22.6c0,0,6.8-4.7,15.3,0.6"/>
			<path class="st2" d="M58.9,22.6c1-0.9,2.3-1.6,3.6-2c1.3-0.4,2.7-0.6,4.2-0.5c0.3,0,0.7,0.1,1.1,0.1c0.3,0,0.7,0.1,1,0.2l1,0.3
				c0.3,0.1,0.7,0.2,1,0.4c0.7,0.2,1.2,0.6,1.8,0.9c0.6,0.4,1.1,0.8,1.6,1.2c-0.7-0.2-1.3-0.5-1.9-0.7l-0.9-0.3
				c-0.2,0-0.3-0.1-0.5-0.1L70.4,22c-0.3-0.1-0.6-0.1-0.9-0.2c-0.3,0-0.6-0.1-0.9-0.2c-0.3-0.1-0.6-0.1-0.9-0.1
				c-0.3,0-0.6-0.1-1-0.1c-1.3-0.1-2.6,0-3.8,0.2C61.4,21.8,60.2,22.1,58.9,22.6z"/>
		</g>
	</g>
	<path class="st2" d="M53.7,60.5l2.8-0.6c1.5-0.3,2.8,1.1,2.3,2.6l-0.9,2.7l0,0c-0.9,2.6-4.3,3.3-6.2,1.2l0,0l-1.9-2.1
		c-1-1.1-0.4-2.9,1.1-3.2L53.7,60.5z"/>
	<path class="st5" d="M57.5,77.6"/>
	<g>
		<g>
			<g>
				<path class="st4" d="M38.6,60.4c-4.1,0.8-8.2-2.4-9.1-7.2c-0.3-1.6-0.2-3.1,0.1-4.5c-1.1,1.9-1.6,4.3-1.1,6.8
					c1,4.8,5.1,8,9.1,7.2c2.7-0.5,4.8-2.8,5.5-5.6C42.1,58.7,40.5,60,38.6,60.4z"/>
				<path d="M36.3,63.2c-3.8,0-7.4-3.2-8.3-7.7c-0.5-2.5-0.1-5.1,1.1-7.1c0.1-0.2,0.3-0.3,0.5-0.2c0.2,0.1,0.3,0.3,0.2,0.5
					c-0.4,1.4-0.4,2.9-0.1,4.3c0.5,2.2,1.6,4.2,3.2,5.5c1.6,1.3,3.5,1.8,5.4,1.4c1.8-0.4,3.3-1.5,4.3-3.1c0.1-0.2,0.3-0.3,0.5-0.2
					c0.2,0.1,0.3,0.3,0.2,0.5c-0.8,3.1-3.1,5.4-5.9,6C37.2,63.2,36.8,63.2,36.3,63.2z M28.8,51.8c-0.2,1.2-0.2,2.4,0.1,3.5
					c0.9,4.5,4.8,7.6,8.6,6.9c1.7-0.3,3.1-1.4,4.1-2.8c-0.9,0.7-1.9,1.2-3,1.4l0,0c-2.1,0.4-4.3-0.1-6.1-1.6c-1.8-1.4-3.1-3.5-3.5-6
					C28.9,52.8,28.9,52.3,28.8,51.8z M38.6,60.4L38.6,60.4L38.6,60.4z"/>
			</g>
			<g>
				<path d="M38.6,60.4c2-0.4,3.5-1.6,4.6-3.3c0.4-1.4,0.4-2.9,0.1-4.5c-1-4.8-5-8-9.1-7.2c-2,0.4-3.5,1.6-4.6,3.3
					c-0.4,1.4-0.4,2.9-0.1,4.5C30.4,58,34.5,61.2,38.6,60.4z"/>
				<path d="M37.3,60.9c-3.8,0-7.4-3.2-8.3-7.7c-0.3-1.6-0.3-3.2,0.1-4.7l0-0.1c1.1-1.9,2.9-3.1,4.9-3.5c4.3-0.9,8.6,2.5,9.6,7.5
					c0.3,1.6,0.3,3.2-0.1,4.7l0,0.1c-1.1,1.9-2.9,3.1-4.8,3.5l0,0C38.2,60.9,37.7,60.9,37.3,60.9z M29.9,48.8
					c-0.4,1.4-0.4,2.8-0.1,4.3c0.9,4.5,4.8,7.6,8.6,6.9l0,0c1.7-0.3,3.2-1.4,4.3-3.1c0.3-1.4,0.4-2.8,0.1-4.3
					c-0.9-4.5-4.8-7.6-8.6-6.9C32.5,46.1,31,47.2,29.9,48.8z"/>
			</g>
			<circle class="st4" cx="35.7" cy="49.7" r="3.2"/>
			<circle class="st4" cx="40.8" cy="53.6" r="1.6"/>
		</g>
		<path d="M28,53.5c-3,0.7-4.9-0.5-4.9-0.5s2.7,0.8,6.1-4.4"/>
	</g>
	<g>
		<g>
			<g>
				<path class="st4" d="M69.2,54.2c4.1-0.8,6.6-5.4,5.7-10.2c-0.3-1.6-1-3-1.8-4.1c1.8,1.3,3.1,3.4,3.6,5.9c1,4.8-1.6,9.3-5.7,10.2
					c-2.7,0.5-5.5-0.7-7.3-3.1C65.3,54.1,67.2,54.6,69.2,54.2z"/>
				<path d="M69.7,56.5c-2.4,0-4.7-1.2-6.4-3.4c-0.1-0.2-0.1-0.4,0-0.6c0.2-0.2,0.4-0.2,0.6,0c1.6,1.2,3.4,1.6,5.2,1.2l0,0
					c3.8-0.8,6.2-5.1,5.3-9.7c-0.3-1.5-0.9-2.8-1.8-4c-0.1-0.2-0.1-0.4,0-0.6s0.4-0.2,0.6,0c1.9,1.4,3.3,3.6,3.8,6.1
					c0.5,2.4,0.1,4.8-1,6.9c-1.1,2-2.9,3.4-5,3.8C70.6,56.5,70.1,56.5,69.7,56.5z M66,54.5c1.5,1,3.2,1.4,4.9,1
					c1.8-0.4,3.4-1.6,4.4-3.4c1-1.8,1.3-4.1,0.9-6.3c-0.2-1.2-0.7-2.3-1.3-3.3c0.2,0.4,0.3,0.9,0.4,1.4c1,5-1.7,9.8-6,10.7l0,0
					C68.2,54.9,67,54.8,66,54.5z M69.2,54.2L69.2,54.2L69.2,54.2z"/>
			</g>
			<g>
				<path d="M69.2,54.2c-1.9,0.4-3.9-0.1-5.5-1.3c-0.9-1.2-1.5-2.5-1.8-4.1c-1-4.8,1.6-9.3,5.7-10.2c1.9-0.4,3.9,0.1,5.5,1.3
					c0.9,1.2,1.5,2.5,1.8,4.1C75.8,48.9,73.2,53.4,69.2,54.2z"/>
				<path d="M67.9,54.8c-1.6,0-3.1-0.5-4.5-1.5l-0.1-0.1c-1-1.2-1.6-2.7-1.9-4.3c-0.5-2.4-0.1-4.8,1-6.9c1.1-2,2.9-3.4,5-3.8
					c2-0.4,4.1,0.1,5.8,1.4l0.1,0.1c0.9,1.2,1.6,2.7,1.9,4.3c1,5-1.7,9.8-6,10.7l0,0C68.8,54.7,68.3,54.8,67.9,54.8z M64,52.6
					c1.6,1.1,3.4,1.5,5.1,1.2c3.8-0.8,6.2-5.1,5.3-9.7c-0.3-1.4-0.9-2.8-1.7-3.9c-1.6-1.1-3.4-1.5-5.1-1.2c-1.8,0.4-3.4,1.6-4.4,3.4
					c-1,1.8-1.3,4.1-0.9,6.3C62.5,50.1,63.1,51.5,64,52.6z"/>
			</g>
			<circle class="st4" cx="67.7" cy="43.3" r="3.2"/>
			<circle class="st4" cx="64.5" cy="48.8" r="1.6"/>
		</g>
		<path d="M76.2,43.8c3-0.5,4.3-2.4,4.3-2.4s-2.2,1.7-7.3-1.7"/>
	</g>
	<g>
		<g>
			<path class="st6" d="M99.2,77.1l18.3,3.5c3.7,0.7,5.6,4.9,3.7,8.1l-15.9,27.2l-7.5,12.8c-4.2,7.1-14.9,5.1-16.2-3.1L79.3,111
				l-4.9-31.2c-0.6-3.7,2.7-6.9,6.4-6.2L99.2,77.1z"/>
			<path class="st2" d="M90.3,134.1c-0.6,0-1.2-0.1-1.9-0.2c-4.1-0.8-7.2-4-7.9-8.1L73.4,80c-0.3-2.1,0.4-4.2,1.9-5.7
				s3.7-2.1,5.8-1.7l36.7,6.9c2.1,0.4,3.8,1.8,4.7,3.7c0.9,2,0.8,4.2-0.3,6l-23.4,40C96.9,132.3,93.7,134.1,90.3,134.1z M79.8,74.6
				c-1.1,0-2.2,0.4-3,1.2c-1,1-1.5,2.4-1.3,3.8l7.2,45.8c0.6,3.9,3.6,5.8,6.2,6.3c2.6,0.5,6-0.2,8-3.7l23.4-40
				c0.7-1.2,0.8-2.7,0.2-4s-1.8-2.2-3.2-2.5l-36.7-6.9C80.3,74.6,80.1,74.6,79.8,74.6z"/>
		</g>
		<g>
			<path class="st7" d="M123.9,76.7l0.1-6.1c0-2.1-0.7-4-1.9-5.6c1.3-10.5-5.8-20.4-16.3-22.4s-20.8,4.6-23.4,14.9
				c-1.7,1-3.1,2.5-3.8,4.5l-2.2,5.7c-2,5.2,1.2,10.8,6.6,11.9l15,2.8l0.4,0.1l15,2.8C118.8,86.3,123.8,82.2,123.9,76.7z"/>
			<path class="st2" d="M115,86.5c-0.6,0-1.2-0.1-1.8-0.2l-30.5-5.8c-2.9-0.6-5.4-2.3-6.8-4.9c-1.4-2.6-1.7-5.6-0.6-8.4l2.2-5.7
				c0.8-2,2.1-3.7,3.9-4.8c2.9-10.6,13.6-17.3,24.5-15.2s18.4,12.2,17.2,23.1c1.2,1.7,1.9,3.8,1.9,5.9l-0.1,6.1
				c0,2.9-1.3,5.7-3.6,7.6C119.5,85.7,117.3,86.5,115,86.5z M101.9,43.3c-8.6,0-16.4,5.8-18.6,14.4l-0.1,0.4l-0.4,0.2
				c-1.5,0.9-2.7,2.3-3.4,4L77.3,68c-0.8,2.2-0.7,4.6,0.5,6.6c1.1,2,3.1,3.4,5.3,3.9l30.5,5.8c2.3,0.4,4.6-0.2,6.4-1.6
				s2.8-3.6,2.8-5.9l0.1-6.1c0-1.8-0.6-3.5-1.7-4.9l-0.3-0.3l0.1-0.4c1.2-10-5.6-19.3-15.5-21.2C104.3,43.4,103.1,43.3,101.9,43.3z"
				/>
		</g>
	</g>
	<g>
		<path class="st8" d="M122.9,60.4c-1.1-10.6-10.1-18.9-21-18.9s-19.1,5.6-20.2,16.2l0,0c-1.8,1.7-1.7,4.7,0.4,6.1
			c0.8,0.5,1.8,0.9,3.1,0.9c5.9,0,2.9,4.5,6.7,4.5s3.3-3.8,6.4-3.8c3.1,0,2.3-1.2,4.6-1.2s1,4.7,4.6,4.7s1.9-3.4,3.8-3.4
			s1.3,5.5,4.4,5.5s1.2-3.5,3.6-3.5c2.2,0,3.8-0.4,4-6.2h0C123.2,61.4,122.9,60.4,122.9,60.4z"/>
		<path class="st2" d="M115.6,72.2c-2.5,0-3.3-2.4-3.8-4c-0.2-0.4-0.4-1.1-0.6-1.4c0,0.1-0.1,0.2-0.1,0.4c-0.3,1-0.8,2.9-3.7,2.9
			c-2.8,0-3.5-2.2-3.9-3.5c-0.3-0.8-0.4-1.2-0.6-1.2c-0.7,0-0.9,0.1-1.3,0.4c-0.7,0.5-1.4,0.9-3.3,0.9c-0.9,0-1.3,0.4-2,1.3
			c-0.8,1-1.9,2.4-4.4,2.4c-2.4,0-3-1.6-3.4-2.6c-0.4-1.1-0.7-1.9-3.3-1.9c-1.3,0-2.5-0.4-3.6-1.1c-1.3-0.8-2.1-2.2-2.2-3.7
			c-0.1-1.4,0.3-2.8,1.3-3.8c1.3-10.4,9.3-16.8,21.2-16.8c11.4,0,20.8,8.5,22,19.8c0.2,0.8,0.3,1.2,0.2,1.5c-0.2,5.8-2,7-5,7
			c-0.2,0-0.2,0-0.2,0c-0.1,0.1-0.2,0.5-0.2,0.7C118.5,70.4,118.1,72.2,115.6,72.2z M111.2,64.5c1.6,0,2.1,1.6,2.6,3
			c0.6,1.8,1,2.6,1.8,2.6c0.8,0,0.8-0.2,1.1-1.1c0.2-0.8,0.6-2.4,2.5-2.4c1.6,0,2.7,0,2.9-5.1c-0.1-0.3-0.2-0.8-0.2-0.8
			c0,0,0-0.1,0-0.1c-1.1-10.2-9.6-17.9-19.9-17.9c-11,0-18.1,5.7-19.1,15.3c0,0.3-0.2,0.5-0.3,0.7c-0.7,0.6-1,1.5-0.9,2.3
			c0.1,0.8,0.5,1.6,1.2,2c0.8,0.5,1.6,0.7,2.5,0.7c4,0,4.8,2,5.3,3.3c0.4,0.9,0.5,1.2,1.4,1.2c1.5,0,2-0.7,2.7-1.6
			c0.7-1,1.7-2.2,3.7-2.2c1.3,0,1.7-0.2,2.1-0.5c0.6-0.4,1.2-0.7,2.5-0.7c1.8,0,2.3,1.6,2.7,2.7c0.5,1.5,0.8,2,1.9,2
			c1.2,0,1.4-0.4,1.6-1.3C109.2,65.9,109.6,64.5,111.2,64.5z"/>
	</g>
	<g>
		<path class="st3" d="M63.7,112.1l10.7,0.1c6.3-0.9,12.2-3.6,16.9-7.8l0,0c3.8-3.3,9.7-2.7,12.6,1.4l0,0c2.9,3.9,1.9,9.4-2,12.2
			l-7.1,4.9c-3.9,2.7-8.4,4.6-13,5.4l-16.3,1.5c0,0-22.4,5.3-37.9-9.6"/>
		<path class="st2" d="M56.2,131.8c-8.2,0-20-1.8-29.3-10.8c-0.4-0.4-0.4-1.1,0-1.5c0.4-0.4,1.1-0.4,1.5,0
			c14.9,14.3,36.7,9.4,36.9,9.3c0.1,0,0.1,0,0.2,0l16.2-1.5c4.5-0.8,8.8-2.6,12.6-5.2l7.1-4.9c1.7-1.2,2.8-2.9,3.2-5
			c0.3-2-0.1-4.1-1.4-5.7c-1.3-1.7-3.1-2.8-5.3-3.1c-2.1-0.2-4.2,0.4-5.8,1.8c-4.9,4.3-11,7.1-17.5,8c-0.1,0-0.1,0-0.2,0l-10.7-0.1
			c-0.6,0-1.1-0.5-1.1-1.1c0-0.6,0.5-1.1,1.1-1.1c0,0,0,0,0,0l10.6,0.1c6.1-0.9,11.7-3.5,16.3-7.5c2.1-1.8,4.8-2.6,7.5-2.3
			s5.2,1.7,6.8,3.9c1.6,2.1,2.2,4.7,1.7,7.3c-0.4,2.6-1.9,4.9-4,6.4l-7.1,4.9c-4,2.8-8.7,4.7-13.5,5.6c0,0-0.1,0-0.1,0l-16.2,1.5
			C65.1,131.1,61.4,131.8,56.2,131.8z"/>
	</g>
	<path class="st9" d="M67.3,74.4L67.3,74.4l-9.5,4.1l-11.2,0.1c2.7,4.4,7.3,6.9,12,5.9C63.2,83.6,66.5,79.4,67.3,74.4L67.3,74.4
		L67.3,74.4z"/>
	<g>
		<g>
			<path class="st10" d="M46.6,78.6c1.5,1.8,3.3,3.3,5.4,4.3c2,0.9,4.3,1.3,6.4,0.8c2.1-0.4,4.1-1.6,5.6-3.2c1.5-1.7,2.6-3.7,3.3-6
				c0,2.4-0.8,4.9-2.3,6.9c-1.5,2-3.8,3.6-6.3,4.1c-2.5,0.5-5.2,0-7.4-1.3C49.2,82.7,47.5,80.8,46.6,78.6z"/>
		</g>
		<g>
			<path class="st10" d="M67.3,74.4c-1.4,1.2-2.9,2.2-4.6,3c-1.7,0.8-3.4,1.3-5.2,1.7c-1.8,0.4-3.7,0.5-5.5,0.4
				c-1.8-0.1-3.7-0.4-5.4-1c1.8-0.1,3.6-0.2,5.4-0.4c1.8-0.2,3.5-0.4,5.2-0.8c1.7-0.3,3.4-0.8,5.1-1.3C63.9,75.6,65.6,75,67.3,74.4z
				"/>
		</g>
	</g>
</g>
</svg>
