<?xml version="1.0" encoding="utf-8"?>
<!-- Generator: Adobe Illustrator 26.0.3, SVG Export Plug-In . SVG Version: 6.00 Build 0)  -->
<svg version="1.1" id="Layer_1" xmlns="http://www.w3.org/2000/svg" xmlns:xlink="http://www.w3.org/1999/xlink" x="0px" y="0px"
	 viewBox="0 0 383.3 172.7" style="enable-background:new 0 0 383.3 172.7;" xml:space="preserve">
<style type="text/css">
	.st0{fill:none;}
	.st1{enable-background:new    ;}
	.st2{fill:#1D1D1B;}
	.st3{fill:#504A4E;}
	.st4{fill:#F3AAB9;}
	.st5{fill:#FFFFFF;}
	.st6{fill:#FFFFFF;stroke:#000000;stroke-width:2;stroke-miterlimit:10;}
	.st7{fill:#FCD395;}
	.st8{fill:#F5B6BB;}
	.st9{fill:#CEE8E8;}
	.st10{fill:#F9D4D6;}
	.st11{fill:#EF808E;}
</style>
<rect x="154" y="120.7" class="st0" width="238" height="25"/>
<g class="st1">
	<path class="st2" d="M155.3,133.4l2.5-12.9l4.2,9.3l4.2-9.3l2.3,12.9h-1.9l-1.2-7.2l-3.5,7.8l-3.5-7.8l-1.3,7.3H155.3z"/>
	<path class="st2" d="M177.5,131.6c-0.3,0.6-0.8,1.1-1.3,1.4c-0.6,0.4-1.4,0.6-2.2,0.6c-1,0-1.8-0.3-2.6-1c-0.7-0.7-1.1-1.8-1.1-2.9
		c0-1.2,0.4-2.3,1.2-3.1c0.6-0.6,1.5-1,2.5-1c1.2,0,2,0.5,2.4,1c1,1,1.1,2.4,1.1,3.2v0.2h-5.4c0,0.5,0.3,1.2,0.6,1.5
		c0.4,0.4,0.9,0.5,1.4,0.5c0.5,0,0.8-0.1,1.2-0.4c0.3-0.2,0.5-0.5,0.7-0.8L177.5,131.6z M175.8,128.6c-0.1-0.4-0.3-0.8-0.5-1
		c-0.2-0.2-0.6-0.4-1.2-0.4c-0.6,0-1,0.3-1.2,0.5c-0.3,0.2-0.5,0.6-0.5,1H175.8z"/>
	<path class="st2" d="M181.2,127.4v6h-1.8v-6h-0.7v-1.6h0.7V123h1.8v2.8h1.4v1.6H181.2z"/>
	<path class="st2" d="M194.7,131.6c-0.3,0.6-0.8,1.1-1.3,1.4c-0.6,0.4-1.4,0.6-2.2,0.6c-1,0-1.8-0.3-2.6-1c-0.7-0.7-1.1-1.8-1.1-2.9
		c0-1.2,0.4-2.3,1.2-3.1c0.6-0.6,1.5-1,2.5-1c1.2,0,2,0.5,2.4,1c1,1,1.1,2.4,1.1,3.2v0.2h-5.4c0,0.5,0.3,1.2,0.6,1.5
		c0.4,0.4,0.9,0.5,1.4,0.5c0.5,0,0.8-0.1,1.2-0.4c0.3-0.2,0.5-0.5,0.7-0.8L194.7,131.6z M193,128.6c-0.1-0.4-0.3-0.8-0.5-1
		c-0.2-0.2-0.6-0.4-1.2-0.4c-0.6,0-1,0.3-1.2,0.5c-0.3,0.2-0.5,0.6-0.5,1H193z"/>
	<path class="st2" d="M203.4,131.6c-0.3,0.6-0.8,1.1-1.3,1.4c-0.6,0.4-1.4,0.6-2.2,0.6c-1,0-1.8-0.3-2.6-1c-0.7-0.7-1.1-1.8-1.1-2.9
		c0-1.2,0.4-2.3,1.2-3.1c0.6-0.6,1.5-1,2.5-1c1.2,0,2,0.5,2.4,1c1,1,1.1,2.4,1.1,3.2v0.2H198c0,0.5,0.3,1.2,0.6,1.5
		c0.4,0.4,0.9,0.5,1.4,0.5c0.5,0,0.8-0.1,1.2-0.4c0.3-0.2,0.5-0.5,0.7-0.8L203.4,131.6z M201.7,128.6c-0.1-0.4-0.3-0.8-0.5-1
		c-0.2-0.2-0.6-0.4-1.2-0.4c-0.6,0-1,0.3-1.2,0.5c-0.3,0.2-0.5,0.6-0.5,1H201.7z"/>
	<path class="st2" d="M205.3,125.8h1.8v0.7c0.8-0.8,1.6-0.9,2.1-0.9c1.4,0,2,0.7,2.2,1c0.3,0.4,0.5,0.9,0.5,2.1v4.6H210v-4.2
		c0-1.9-0.7-2-1.4-2c-0.8,0-1.6,0.1-1.6,2.6v3.6h-1.8V125.8z"/>
	<path class="st2" d="M220,126.7c0.7-0.9,1.7-1.1,2.2-1.1c2,0,3.7,1.5,3.7,4c0,2.1-1.3,4-3.7,4c-0.5,0-1.5-0.1-2.3-1v0.8h-1.8v-13.1
		h1.8V126.7z M219.9,129.6c0,1.6,1,2.4,2.1,2.4c1.3,0,2.1-1.1,2.1-2.4c0-1.4-0.8-2.4-2.1-2.4C220.9,127.2,219.9,128,219.9,129.6z"/>
	<path class="st2" d="M234.5,131.6c-0.3,0.6-0.8,1.1-1.3,1.4c-0.6,0.4-1.4,0.6-2.2,0.6c-1,0-1.8-0.3-2.6-1c-0.7-0.7-1.1-1.8-1.1-2.9
		c0-1.2,0.4-2.3,1.2-3.1c0.6-0.6,1.5-1,2.5-1c1.2,0,2,0.5,2.4,1c1,1,1.1,2.4,1.1,3.2v0.2h-5.4c0,0.5,0.3,1.2,0.6,1.5
		c0.4,0.4,0.9,0.5,1.4,0.5c0.5,0,0.8-0.1,1.2-0.4c0.3-0.2,0.5-0.5,0.7-0.8L234.5,131.6z M232.8,128.6c-0.1-0.4-0.3-0.8-0.5-1
		c-0.2-0.2-0.6-0.4-1.2-0.4c-0.6,0-1,0.3-1.2,0.5c-0.3,0.2-0.5,0.6-0.5,1H232.8z"/>
	<path class="st2" d="M243.2,131.6c-0.3,0.6-0.8,1.1-1.3,1.4c-0.6,0.4-1.4,0.6-2.2,0.6c-1,0-1.8-0.3-2.6-1c-0.7-0.7-1.1-1.8-1.1-2.9
		c0-1.2,0.4-2.3,1.2-3.1c0.6-0.6,1.5-1,2.5-1c1.2,0,2,0.5,2.4,1c1,1,1.1,2.4,1.1,3.2v0.2h-5.4c0,0.5,0.3,1.2,0.6,1.5
		c0.4,0.4,0.9,0.5,1.4,0.5c0.5,0,0.8-0.1,1.2-0.4c0.3-0.2,0.5-0.5,0.7-0.8L243.2,131.6z M241.5,128.6c-0.1-0.4-0.3-0.8-0.5-1
		c-0.2-0.2-0.6-0.4-1.2-0.4c-0.6,0-1,0.3-1.2,0.5c-0.3,0.2-0.5,0.6-0.5,1H241.5z"/>
	<path class="st2" d="M246.9,127.4v6h-1.8v-6h-0.7v-1.6h0.7V123h1.8v2.8h1.3v1.6H246.9z"/>
	<path class="st2" d="M250.3,121.5c0.6,0,1.1,0.5,1.1,1.1c0,0.6-0.5,1.1-1.1,1.1s-1.1-0.5-1.1-1.1
		C249.2,122,249.7,121.5,250.3,121.5z M251.2,125.8v11.7h-1.8v-11.7H251.2z"/>
	<path class="st2" d="M260.2,131.6c-0.3,0.6-0.8,1.1-1.3,1.4c-0.6,0.4-1.4,0.6-2.2,0.6c-1,0-1.8-0.3-2.6-1c-0.7-0.7-1.1-1.8-1.1-2.9
		c0-1.2,0.4-2.3,1.2-3.1c0.6-0.6,1.5-1,2.5-1c1.2,0,2,0.5,2.4,1c1,1,1.1,2.4,1.1,3.2v0.2h-5.4c0,0.5,0.3,1.2,0.6,1.5
		c0.4,0.4,0.9,0.5,1.4,0.5c0.5,0,0.8-0.1,1.2-0.4c0.3-0.2,0.5-0.5,0.7-0.8L260.2,131.6z M258.5,128.6c-0.1-0.4-0.3-0.8-0.5-1
		c-0.2-0.2-0.6-0.4-1.2-0.4c-0.6,0-1,0.3-1.2,0.5c-0.3,0.2-0.5,0.6-0.5,1H258.5z"/>
	<path class="st2" d="M267.3,125.8l1.9,4.3l1.9-4.3h2l-3.9,8.1l-3.9-8.1H267.3z"/>
	<path class="st2" d="M279.8,125.8h1.8v7.6h-1.8v-0.8c-0.8,0.9-1.7,1-2.3,1c-2.3,0-3.7-1.9-3.7-4c0-2.5,1.7-4,3.7-4
		c0.6,0,1.5,0.1,2.3,1.1V125.8z M275.6,129.6c0,1.3,0.8,2.4,2.1,2.4c1.1,0,2.1-0.8,2.1-2.4c0-1.7-1-2.4-2.1-2.4
		C276.4,127.2,275.6,128.2,275.6,129.6z"/>
	<path class="st2" d="M283.7,125.8h1.8v0.7c0.8-0.8,1.6-0.9,2.1-0.9c1.4,0,2,0.7,2.2,1c0.3,0.4,0.5,0.9,0.5,2.1v4.6h-1.8v-4.2
		c0-1.9-0.7-2-1.4-2c-0.8,0-1.6,0.1-1.6,2.6v3.6h-1.8V125.8z"/>
	<path class="st2" d="M299,129.3l-2.7-3.5h2.1l1.7,2.2l1.7-2.2h2.2l-2.8,3.5l3.2,4.1h-2.1l-2.2-2.8l-2.3,2.8h-2.2L299,129.3z"/>
	<path class="st2" d="M306.5,121.5c0.6,0,1.1,0.5,1.1,1.1c0,0.6-0.5,1.1-1.1,1.1s-1.1-0.5-1.1-1.1
		C305.4,122,305.8,121.5,306.5,121.5z M307.4,125.8v7.6h-1.8v-7.6H307.4z"/>
	<path class="st2" d="M315.1,125.8h1.8v7.6h-1.8v-0.8c-0.8,0.9-1.7,1-2.3,1c-2.3,0-3.7-1.9-3.7-4c0-2.5,1.7-4,3.7-4
		c0.6,0,1.5,0.1,2.3,1.1V125.8z M311,129.6c0,1.3,0.8,2.4,2.1,2.4c1.1,0,2.1-0.8,2.1-2.4c0-1.7-1-2.4-2.1-2.4
		C311.8,127.2,311,128.2,311,129.6z"/>
	<path class="st2" d="M326.8,129.6c0,2.3-1.8,4-4.1,4c-2.3,0-4.1-1.7-4.1-4c0-2.3,1.8-4,4.1-4C325.1,125.6,326.8,127.2,326.8,129.6z
		 M325,129.6c0-1.7-1.1-2.4-2.3-2.4s-2.3,0.7-2.3,2.4c0,1.5,0.9,2.4,2.3,2.4S325,131.1,325,129.6z"/>
</g>
<rect x="153" y="58.7" class="st0" width="296" height="55"/>
<g class="st1">
	<path class="st3" d="M181,99c-0.8,0.9-2,1.4-3.1,1.4c-0.2,0-0.3,0-0.4,0c-1.6-0.2-3.2-1.2-4.1-2.7c-1-1.5-3.7-4.4-4.9-5.7
		c-1.4,1.6-4.6,5.2-5.8,6.6c-1,1.1-2.8,1.9-4.6,1.9c-1.3-0.1-2.2-0.5-2.8-1.2c-1.1-1.4-1.5-3.9,0.8-6.5c1.5-1.7,5.2-6,6.6-7.6
		l-7.3-8.8c-0.2-0.2-1.1-1.5-0.9-2.8c0.1-0.2,0.3-2.3,1.9-3.5c0.8-0.6,1.7-0.8,2.8-0.6c2.9,0.5,7.4,5.9,9.3,8.3
		c1.9-2.7,6.5-8.4,9.7-8.1c1.3,0.1,2.2,0.6,2.9,1.4c1.2,1.5,1,3.5,1,3.7s-0.4,2.9-4.1,6.6c-2,2-3,3.1-3.5,3.7l6,7.3
		C180.4,92.5,183.4,96.3,181,99z"/>
	<path class="st3" d="M184.1,63.4c0-2.5,1.6-3.7,4.7-3.7h0.1c0.1,0,4.6,0.8,4.6,3.8c0,2.9-2.8,4.3-4.7,4.3
		C186.8,67.7,184.1,66.3,184.1,63.4z M192.6,70.6c0.5,0.6,0.8,1.4,0.8,2.3c0,1.3-0.1,3.8-0.3,6.8c-0.2,5.4-0.5,12.1-0.3,14.9
		c0.1,1.7-0.2,3-0.8,3.8c-0.8,1-1.9,1.1-2.4,1.1c-0.1,0-0.1,0-0.2,0c-0.1,0-0.2,0-0.4,0c-0.3,0-0.6-0.1-1-0.4
		c-1.1-1-1.9-4.4-2.4-10.2c-0.2-2.2-0.4-4.2-0.6-6c-0.7-5.8-1.2-10.1,0.4-12.3c0.7-1,1.9-1.6,3.5-1.6h0.1
		C189.1,69.3,191.4,69.2,192.6,70.6z"/>
	<path class="st3" d="M220.1,96.9c0,0-3.1,2.9-11.4,3.4c-8.2,0.4-12.2-5.9-12.6-13.3c-0.4-7.4,4.8-16.4,15.2-16.9
		c4.3-0.2,7,1.6,8.6,3.8c0,0,0.4-3.6,3.5-3.9c3.2-0.3,3.8,2.3,3.3,5.8c-0.5,3.5-0.8,12.6,0.1,20.2
		C227.8,103.5,219.9,101.5,220.1,96.9z M217.4,85.3c-0.5-5.6-4.1-7.7-7.7-7.4c0,0-6.5,0.4-5.9,7.7c0.6,7.3,5.6,7.6,7.4,7.4
		C212.9,92.9,217.9,91,217.4,85.3z"/>
	<path class="st3" d="M257.3,84.4c0,14.9-12.6,15.8-13.9,15.8c-1.3,0-13.4-0.8-13.4-14.8c0-14,10-15.7,13.9-15.7
		C243.8,69.7,257.3,69.5,257.3,84.4z M250.5,84.7c-0.5-5.7-4.1-7.7-7.8-7.4c0,0-0.8,0.1-1.9,0.4c-1.9,0.7-4.4,2.6-4,7.3
		c0.5,6.5,4.6,7.4,6.7,7.4c0.3,0,0.5,0,0.7,0C245.9,92.3,251,90.4,250.5,84.7z"/>
	<path class="st3" d="M285.9,78.4c-1.7,3.4-4.6,2.6-7,2c-1.3-0.4-2.8-0.8-4.4-0.8c-0.7,0-5.9,0.2-5.9,6.8c0,2.5,0.7,4.2,2.2,4.9
		c1.9,0.9,4.6,0.2,6-0.9c2.3-1.9,5.2-1.4,6.6,0.2c1.1,1.3,1.4,3.4-0.4,5.2c-2.8,2.9-5.6,4.7-10.3,4.7c-0.2,0-0.4,0-0.5,0
		c-5.3-0.2-12.9-4.8-12.9-14.6c0-9.5,8.1-15.8,15.7-15.8c5.2,0,9.4,1.5,10.9,4C286.6,75.3,286.7,76.9,285.9,78.4z"/>
	<path class="st3" d="M315.5,84.4c0,14.9-12.6,15.8-13.9,15.8c-1.3,0-13.4-0.8-13.4-14.8c0-14,10-15.7,13.9-15.7
		C302,69.7,315.5,69.5,315.5,84.4z M308.7,84.7c-0.5-5.7-4.1-7.7-7.8-7.4c0,0-0.8,0.1-1.9,0.4c-1.9,0.7-4.4,2.6-4,7.3
		c0.5,6.5,4.6,7.4,6.7,7.4c0.3,0,0.5,0,0.7,0C304.1,92.3,309.2,90.4,308.7,84.7z"/>
	<path class="st3" d="M336.5,63.4c0-2.5,1.6-3.7,4.7-3.7h0.1c0.1,0,4.6,0.8,4.6,3.8c0,2.9-2.8,4.3-4.7,4.3
		C339.3,67.7,336.5,66.3,336.5,63.4z M345.1,70.6c0.5,0.6,0.8,1.4,0.8,2.3c0,1.3-0.1,3.8-0.3,6.8c-0.2,5.4-0.5,12.1-0.3,14.9
		c0.1,1.7-0.2,3-0.8,3.8c-0.8,1-1.9,1.1-2.4,1.1c-0.1,0-0.1,0-0.2,0c-0.1,0-0.2,0-0.4,0c-0.3,0-0.6-0.1-1-0.4
		c-1.1-1-1.9-4.4-2.4-10.2c-0.2-2.2-0.4-4.2-0.6-6c-0.7-5.8-1.2-10.1,0.4-12.3c0.7-1,1.9-1.6,3.5-1.6h0.1
		C341.6,69.3,343.9,69.2,345.1,70.6z"/>
	<path class="st3" d="M355,110.7c-2.2,2.3-3.8,3.4-7.9,3.4c-6.1,0-11.4-1.6-12.8-7.4c-1-4.5,0.7-4.4,2.2-5.1
		c0.7-0.4,2.6-0.7,3.6,0.1c0.7,0.7,1,1.4,1.3,2.5c0.7,2.6,3.4,2.9,5.6,2.3c2.2-0.6,4.3-2.6,4.3-8.2c0-1.6-0.4-4.2-0.9-7.1
		c-1-6.7-2.3-17,0-20c0.5-0.7,1.3-1.1,2.2-1.3c0.2,0,1.7-0.2,3.2,1.1c2.2,1.8,3.2,10.3,3.2,15.7c0,1.8,0.1,0.8,0.1,2.9
		C359.5,98,359.9,105.7,355,110.7z M348.3,64.1c0-2.5,1.6-3.7,4.6-3.7h0.1c0.1,0,4.5,0.8,4.5,3.8c0,2.9-2.7,4.3-4.6,4.3
		C351.1,68.4,348.3,67,348.3,64.1z"/>
	<path class="st3" d="M373.8,99.7c-8.9,1-11.6-3.2-12.2-6.3c-0.5-3.1,1.4-4.1,1.9-4.6c0.5-0.5,4.2-2.3,5.8,1.1
		c1.5,3.4,3.7,3.1,3.7,3.1s2.9,0.2,2.9-3.5c0-3.7-10.1-8.6-10.3-12.4c-0.1-3.8,1.3-6.8,7.1-7.6c5.8-0.8,9.5,1.5,9.5,4.9
		c-0.1,3.4-2.9,3.4-2.9,3.4c-1.3,0.2-2.5-0.5-2.5-0.5c-1.7-1.4-2.8,0-2.6,0.9c0.2,0.9,3.5,3.2,3.5,3.2c4.5,3.5,5.3,6.1,5.6,8.8
		C383.6,93,382.7,98.7,373.8,99.7z"/>
</g>
<g>
	<g>
		<circle class="st4" cx="25.7" cy="150.7" r="7.4"/>
		<path class="st3" d="M25.7,159.1c-4.7,0-8.5-3.8-8.5-8.5c0-4.7,3.8-8.5,8.5-8.5s8.5,3.8,8.5,8.5S30.4,159.1,25.7,159.1z
			 M25.7,144.4c-3.5,0-6.3,2.8-6.3,6.3c0,3.5,2.8,6.3,6.3,6.3s6.3-2.8,6.3-6.3C32,147.2,29.2,144.4,25.7,144.4z"/>
	</g>
	<g>
		<g>
			<polyline class="st4" points="95.1,134.9 113.2,132.7 115.5,152 97.4,154.2 			"/>
			<polygon class="st3" points="97.5,155.2 97.2,153.1 114.3,151.1 112.3,133.9 95.2,135.9 94.9,133.8 114.2,131.5 116.7,153 			"/>
		</g>
		<g>
			<path class="st4" d="M107.7,137.2l-2.1-6c-1.2-3.3,0-7.1,2.9-9.1c1-0.6,2.1-1,3.3-1.2l0,0c4.3-0.5,8.1,2.6,8.7,6.8l2,16.7
				c0.4,3.7-2.2,7-5.9,7.5l-8.8,1"/>
			<path class="st3" d="M107.8,154c-0.5,0-1-0.4-1.1-0.9c-0.1-0.6,0.3-1.1,0.9-1.2l8.8-1c1.5-0.2,2.8-0.9,3.8-2.1
				c0.9-1.2,1.3-2.7,1.2-4.2l-2-16.8c-0.4-3.7-3.8-6.3-7.5-5.9c-1,0.1-2,0.5-2.8,1c-2.5,1.6-3.6,4.9-2.5,7.8l2.1,6
				c0.2,0.6-0.1,1.2-0.7,1.4c-0.6,0.2-1.2-0.1-1.4-0.6l-2.1-6c-1.4-3.9,0-8.1,3.4-10.3c1.1-0.7,2.4-1.2,3.8-1.3
				c4.8-0.6,9.3,2.9,9.8,7.8l2,16.8c0.2,2.1-0.3,4.1-1.6,5.7c-1.3,1.6-3.1,2.7-5.2,2.9l-8.8,1C107.9,154,107.8,154,107.8,154z"/>
		</g>
	</g>
	<g>
		<path class="st4" d="M65.6,129.8c0,0,17.7-18.6,32.3-17c-7.1-15.2-19.5-28.2-33.6-28.2c-27.6,0-30.4,17.5-36.6,35.6
			C43.2,135.1,65.6,129.8,65.6,129.8z"/>
		<path class="st3" d="M56.2,131.7c-8.1,0-20-1.8-29.3-10.8l-0.5-0.5l0.2-0.7c0.6-1.8,1.2-3.5,1.7-5.2c5.2-16,10.2-31.1,35.9-31.1
			c15.5,0,28,14.9,34.6,28.8l0.8,1.7l-1.9-0.2c-13.9-1.6-31.3,16.5-31.4,16.6l-0.2,0.2l-0.3,0.1C65.7,130.9,61.8,131.7,56.2,131.7z
			 M28.9,119.9c14,12.9,33.5,9.5,36.2,8.9c1-1,5.1-5.1,10.6-9c7.7-5.5,14.6-8.2,20.5-8.2c-6.5-12.8-17.9-26-31.9-26
			c-24.2,0-28.7,13.7-33.9,29.6C29.9,116.8,29.4,118.3,28.9,119.9z"/>
	</g>
	<g>
		<path class="st5" d="M65.6,129.8c0,0-22.4,5.3-37.9-9.6c-2.2,6.4-3.5,12.9-3.5,18.7c0,6.9,1.8,12,4.8,15.8
			c6.8,8.3,20,10.1,35.2,10.1c22.1,0,40.1-3.7,40.1-25.9c0-8-2.4-17.4-6.4-26.1C83.2,111.2,65.6,129.8,65.6,129.8z"/>
		<path class="st3" d="M64.3,165.8c-13.6,0-28.5-1.2-36.1-10.5c-3.4-4.1-5.1-9.7-5.1-16.5c0-5.8,1.2-12.4,3.5-19.1l0.5-1.6l1.2,1.2
			c14,13.4,34,9.9,36.6,9.4c2.2-2.3,18.8-18.7,33-17.1l0.6,0.1l0.2,0.5c4.2,9,6.5,18.4,6.5,26.5c0,10.7-4,18-12.3,22.2
			C86.6,164.4,77.8,165.8,64.3,165.8z M28.1,122.1c-1.9,5.9-2.9,11.7-2.9,16.8c0,6.4,1.5,11.4,4.6,15.1c7,8.5,21.3,9.7,34.4,9.7
			c13.1,0,21.7-1.4,27.8-4.5c7.5-3.8,11.2-10.5,11.2-20.3c0-7.6-2.2-16.5-6.1-25c-13.8-1-30.7,16.5-30.8,16.7l-0.2,0.2l-0.3,0.1
			C65.6,130.9,43.8,135.8,28.1,122.1z"/>
	</g>
	<g>
		<path class="st4" d="M78.4,99.9l10.7,0.1c6.3-0.9,12.2-3.6,16.9-7.8l0,0c3.8-3.3,9.7-2.7,12.6,1.4l0,0c2.9,3.9,1.9,9.4-2,12.2
			l-7.1,4.9c-3.9,2.7-8.4,4.6-13,5.4l-16.3,1.5"/>
		<path class="st3" d="M80.3,118.8l-0.2-2.1l16.2-1.5c4.5-0.8,8.8-2.6,12.6-5.2l7.1-4.9c1.7-1.2,2.8-2.9,3.2-5
			c0.3-2-0.1-4.1-1.4-5.7c-1.3-1.7-3.1-2.8-5.3-3.1c-2.1-0.2-4.2,0.4-5.8,1.8c-4.9,4.3-11,7.1-17.5,8l-0.1,0L78.3,101l0-2.1L89,98.9
			c6.1-0.9,11.7-3.5,16.3-7.5c2.1-1.8,4.8-2.6,7.5-2.3c2.7,0.3,5.2,1.7,6.8,3.9c1.6,2.1,2.2,4.7,1.7,7.3s-1.9,4.9-4,6.4l-7.1,4.9
			c-4,2.8-8.7,4.7-13.5,5.6l-0.1,0L80.3,118.8z"/>
	</g>
	<path class="st3" d="M83.5,170.9l2.7-8.4c-6.2,1.7-13.7,2.2-21.7,2.2L83.5,170.9z"/>
	<path class="st4" d="M70.9,144.2c0,0-5.4-0.8-9.8,3.1c-5.5,5-14.7,12.6-30.1,9.4c0,0,0,0,0,0c7.2,6.5,19.4,8,33.2,8
		c0.1,0,0.1,0,0.2,0c8,0,15.5-0.5,21.7-2.2l3.9-12.1L70.9,144.2z"/>
	<g>
		<g>
			<polyline class="st4" points="64.2,164.7 83.5,170.9 90.1,150.4 70.9,144.2 			"/>
			<path class="st3" d="M83.5,172c-0.1,0-0.2,0-0.3-0.1l-19.2-6.2c-0.6-0.2-0.9-0.8-0.7-1.4s0.8-0.9,1.4-0.7l18.2,5.9l6-18.4
				l-18.2-5.9c-0.6-0.2-0.9-0.8-0.7-1.4c0.2-0.6,0.8-0.9,1.3-0.7l19.2,6.2c0.6,0.2,0.9,0.8,0.7,1.4l-6.6,20.5
				C84.3,171.7,83.9,172,83.5,172z"/>
		</g>
		<g>
			<path class="st4" d="M82.5,152.4l0.7-7.1c0.4-3.9,3.3-7.2,7.1-7.7c1.3-0.2,2.6-0.1,3.9,0.3l0,0c4.5,1.5,7,6.3,5.5,10.8l-5.7,17.7
				c-1.3,3.9-5.4,6-9.3,4.8l-9.3-3"/>
			<path class="st3" d="M86.9,172.7c-0.9,0-1.8-0.1-2.6-0.4l-9.3-3c-0.6-0.2-0.9-0.8-0.7-1.4c0.2-0.6,0.8-0.9,1.3-0.7l9.3,3
				c1.6,0.5,3.3,0.4,4.8-0.4c1.5-0.8,2.6-2.1,3.2-3.7l5.7-17.7c1.3-4-0.9-8.2-4.8-9.5c-1.1-0.4-2.2-0.5-3.4-0.3
				c-3.3,0.5-5.9,3.3-6.2,6.8l-0.7,7.1c-0.1,0.6-0.6,1-1.2,1c-0.6-0.1-1-0.6-1-1.2l0.7-7.1c0.4-4.5,3.7-8.1,8.1-8.7
				c1.5-0.2,2.9-0.1,4.4,0.4c5.1,1.6,7.9,7.1,6.2,12.2L95,166.8c-0.7,2.2-2.2,3.9-4.2,4.9C89.5,172.4,88.2,172.7,86.9,172.7z"/>
		</g>
	</g>
	<path class="st3" d="M64.3,165.8c-13.6,0-28.5-1.2-36.1-10.5c-0.4-0.5-0.3-1.1,0.1-1.5s1.1-0.3,1.5,0.1c7,8.5,21.3,9.7,34.4,9.7
		c0.6,0,1.1,0.5,1.1,1.1C65.3,165.3,64.8,165.8,64.3,165.8z"/>
	<g>
		<g>
			<circle class="st4" cx="15.6" cy="27.9" r="14.6"/>
			<path class="st3" d="M15.6,43.6C7,43.6,0,36.5,0,27.9s7-15.6,15.6-15.6s15.6,7,15.6,15.6S24.3,43.6,15.6,43.6z M15.6,14.4
				c-7.4,0-13.5,6.1-13.5,13.5s6.1,13.5,13.5,13.5s13.5-6.1,13.5-13.5C29.1,20.5,23.1,14.4,15.6,14.4z"/>
		</g>
		<g>
			<circle class="st4" cx="76.2" cy="15.6" r="14.6"/>
			<path class="st3" d="M76.2,31.3c-8.6,0-15.6-7-15.6-15.6S67.6,0,76.2,0s15.6,7,15.6,15.6S84.8,31.3,76.2,31.3z M76.2,2.1
				c-7.4,0-13.5,6.1-13.5,13.5s6.1,13.5,13.5,13.5s13.5-6.1,13.5-13.5C89.7,8.2,83.7,2.1,76.2,2.1z"/>
		</g>
	</g>
	<g>
		<path class="st5" d="M92.8,46.8C84.6,25.6,76.7,3.5,43.5,10.2c-31.6,6.3-32,30-31.3,52.8c0.6,22.2,25.3,32.6,47.6,28.2
			C82.1,86.7,100.8,67.5,92.8,46.8z"/>
		<path class="st3" d="M49.6,93.3c-10.5,0-20.6-3.1-27.7-8.8C15.1,79,11.3,71.6,11.1,63c-0.3-11.9-0.3-23.5,3.7-33
			c4.6-11.1,13.9-17.9,28.5-20.9c33.5-6.7,41.9,15,50,36.1l0.5,1.2c3.1,8,2.5,16.3-1.7,23.9C86.3,81,74,89.4,60,92.3
			C56.5,93,53,93.3,49.6,93.3z M54.8,10.1c-3.4,0-7.1,0.4-11.1,1.2c-13.8,2.8-22.6,9.2-27,19.6C13,40,12.9,51.3,13.2,63
			c0.2,7.9,3.7,14.8,10,19.8c9,7.2,22.9,10,36.3,7.4c13.4-2.7,25.1-10.7,30.7-20.8c3.9-7.1,4.4-14.8,1.6-22.1L91.3,46
			c-3.9-10.2-8-20.7-15-27.6C70.7,12.8,63.7,10.1,54.8,10.1z"/>
	</g>
	<g>
		<path class="st5" d="M35.9,13.4c0,0-3.1-8,1.4-8.9s4.3,5.1,4.3,5.1s1.2-7.2,3.9-6.8c2.7,0.4,1.2,5.9,1.2,5.9s5.3-2.2,6,1.3
			s-4.9,1-4.9,1"/>
		<path class="st3" d="M35.9,14.4c-0.4,0-0.8-0.3-1-0.7c-0.2-0.6-2.1-5.5-0.5-8.4c0.5-1,1.5-1.7,2.6-1.9c1.8-0.4,3,0.2,3.6,0.8
			c0.4,0.3,0.7,0.7,1,1.1c0.8-2,2.1-3.9,4.1-3.6c0.8,0.1,1.5,0.6,1.9,1.2c0.7,1.1,0.7,2.8,0.5,4.1c1.2-0.3,2.7-0.4,3.9,0.2
			c0.9,0.5,1.5,1.3,1.7,2.4c0.3,1.4-0.2,2.2-0.7,2.6c-1.6,1.2-4.7,0-5.6-0.4c-0.5-0.2-0.8-0.9-0.5-1.4c0.2-0.5,0.9-0.8,1.4-0.5
			c1.5,0.7,3.1,0.9,3.4,0.7c0,0,0-0.1,0-0.5c-0.1-0.6-0.4-0.8-0.6-0.9c-1-0.5-2.9,0-3.9,0.4c-0.4,0.2-0.8,0.1-1.1-0.2
			c-0.3-0.3-0.4-0.7-0.3-1.1c0.4-1.3,0.6-3.4,0.1-4.3c-0.1-0.2-0.2-0.2-0.4-0.3c-1-0.2-2.2,3-2.7,5.9c-0.1,0.6-0.6,0.9-1.2,0.9
			c-0.6-0.1-1-0.5-1-1.1c0-0.7-0.2-2.8-1.2-3.7c-0.5-0.4-1-0.5-1.8-0.3c-0.6,0.1-0.9,0.4-1.2,0.8c-0.9,1.7,0.2,5.4,0.6,6.6
			c0.2,0.6-0.1,1.2-0.6,1.4C36.2,14.4,36.1,14.4,35.9,14.4z"/>
	</g>
	<path class="st4" d="M33.1,32.9c-8.1,1.6-13.4,9.6-11.8,17.7c1.6,8.1,10.1,18.1,17.5,11.6c-3.1,2.8,8.8-10.7-8.7-5.7
		c-4,1.1,1.8-8,5.9-8.8s6.7-4.8,5.9-8.8C41.1,34.8,37.2,32.1,33.1,32.9z"/>
	<path class="st4" d="M63.5,26.8c8.1-1.6,16.1,3.6,17.7,11.8s-2.4,20.6-11.7,17.4c3.9,1.3-12.2-6.4,5.8-8.6c4.1-0.5-4.8-6.7-8.8-5.9
		s-8-1.8-8.8-5.9S59.4,27.7,63.5,26.8z"/>
	<g>
		<g>
			<path class="st5" d="M35.8,27.2c0,0-8.1-1.7-13.9,6.4"/>
			<path class="st3" d="M35.8,27.2c-1.4,0-2.7,0.2-3.9,0.5c-1.3,0.3-2.5,0.7-3.6,1.3c-0.3,0.1-0.6,0.3-0.9,0.4
				c-0.3,0.1-0.6,0.3-0.8,0.5c-0.3,0.2-0.5,0.4-0.8,0.5c-0.3,0.2-0.5,0.4-0.8,0.6l-0.4,0.3c-0.1,0.1-0.2,0.2-0.4,0.3l-0.8,0.6
				c-0.5,0.4-1,0.9-1.5,1.4c0.3-0.6,0.6-1.2,1-1.8c0.4-0.5,0.8-1.1,1.3-1.6c0.2-0.2,0.5-0.5,0.8-0.7l0.8-0.6
				c0.3-0.2,0.6-0.4,0.9-0.6c0.3-0.2,0.6-0.4,0.9-0.5c1.3-0.6,2.6-1,4-1.1C33.1,26.6,34.5,26.7,35.8,27.2z"/>
		</g>
		<g>
			<path class="st5" d="M58.9,22.5c0,0,6.8-4.7,15.3,0.6"/>
			<path class="st3" d="M58.9,22.5c1-0.9,2.3-1.6,3.6-2c1.3-0.4,2.7-0.6,4.2-0.5c0.3,0,0.7,0.1,1.1,0.1c0.3,0,0.7,0.1,1,0.2l1,0.3
				c0.3,0.1,0.7,0.2,1,0.4c0.7,0.2,1.2,0.6,1.8,0.9c0.6,0.4,1.1,0.8,1.6,1.2c-0.7-0.2-1.3-0.5-1.9-0.7l-0.9-0.3
				c-0.2,0-0.3-0.1-0.5-0.1l-0.5-0.1c-0.3-0.1-0.6-0.1-0.9-0.2c-0.3,0-0.6-0.1-0.9-0.2c-0.3-0.1-0.6-0.1-0.9-0.1
				c-0.3,0-0.6-0.1-1-0.1c-1.3-0.1-2.6,0-3.8,0.2C61.4,21.7,60.2,22.1,58.9,22.5z"/>
		</g>
	</g>
	<path class="st3" d="M53.7,60.5l2.8-0.6c1.5-0.3,2.8,1.1,2.3,2.6l-0.9,2.7l0,0c-0.9,2.6-4.3,3.3-6.2,1.2l0,0l-1.9-2.1
		c-1-1.1-0.4-2.9,1.1-3.2L53.7,60.5z"/>
	<path class="st6" d="M57.5,77.5"/>
	<g>
		<g>
			<g>
				<path class="st5" d="M38.6,60.3c-4.1,0.8-8.2-2.4-9.1-7.2c-0.3-1.6-0.2-3.1,0.1-4.5c-1.1,1.9-1.6,4.3-1.1,6.8
					c1,4.8,5.1,8,9.1,7.2c2.7-0.5,4.8-2.8,5.5-5.6C42.1,58.7,40.5,59.9,38.6,60.3z"/>
				<path d="M36.3,63.2c-3.8,0-7.4-3.2-8.3-7.7c-0.5-2.5-0.1-5.1,1.1-7.1c0.1-0.2,0.3-0.3,0.5-0.2c0.2,0.1,0.3,0.3,0.2,0.5
					c-0.4,1.4-0.4,2.9-0.1,4.3c0.5,2.2,1.6,4.2,3.2,5.5c1.6,1.3,3.5,1.8,5.4,1.4c1.8-0.4,3.3-1.5,4.3-3.1c0.1-0.2,0.3-0.3,0.5-0.2
					c0.2,0.1,0.3,0.3,0.2,0.5c-0.8,3.1-3.1,5.4-5.9,6C37.2,63.1,36.8,63.2,36.3,63.2z M28.8,51.8c-0.2,1.2-0.2,2.4,0.1,3.5
					c0.9,4.5,4.8,7.6,8.6,6.9c1.7-0.3,3.1-1.4,4.1-2.8c-0.9,0.7-1.9,1.2-3,1.4l0,0c-2.1,0.4-4.3-0.1-6.1-1.6c-1.8-1.4-3.1-3.5-3.5-6
					C28.9,52.7,28.9,52.2,28.8,51.8z M38.6,60.3L38.6,60.3L38.6,60.3z"/>
			</g>
			<g>
				<path d="M38.6,60.3c2-0.4,3.5-1.6,4.6-3.3c0.4-1.4,0.4-2.9,0.1-4.5c-1-4.8-5-8-9.1-7.2c-2,0.4-3.5,1.6-4.6,3.3
					c-0.4,1.4-0.4,2.9-0.1,4.5C30.4,57.9,34.5,61.1,38.6,60.3z"/>
				<path d="M37.3,60.8c-3.8,0-7.4-3.2-8.3-7.7c-0.3-1.6-0.3-3.2,0.1-4.7l0-0.1c1.1-1.9,2.9-3.1,4.9-3.5c4.3-0.9,8.6,2.5,9.6,7.5
					c0.3,1.6,0.3,3.2-0.1,4.7l0,0.1c-1.1,1.9-2.9,3.1-4.8,3.5l0,0C38.2,60.8,37.7,60.8,37.3,60.8z M29.9,48.8
					c-0.4,1.4-0.4,2.8-0.1,4.3c0.9,4.5,4.8,7.6,8.6,6.9l0,0c1.7-0.3,3.2-1.4,4.3-3.1c0.3-1.4,0.4-2.8,0.1-4.3
					c-0.9-4.5-4.8-7.6-8.6-6.9C32.5,46,31,47.1,29.9,48.8z"/>
			</g>
			<circle class="st5" cx="35.7" cy="49.6" r="3.2"/>
			<circle class="st5" cx="40.8" cy="53.5" r="1.6"/>
		</g>
		<path d="M28,53.4c-3,0.7-4.9-0.5-4.9-0.5s2.7,0.8,6.1-4.4"/>
	</g>
	<g>
		<g>
			<g>
				<path class="st5" d="M69.2,54.2c4.1-0.8,6.6-5.4,5.7-10.2c-0.3-1.6-1-3-1.8-4.1c1.8,1.3,3.1,3.4,3.6,5.9c1,4.8-1.6,9.3-5.7,10.2
					c-2.7,0.5-5.5-0.7-7.3-3.1C65.3,54,67.2,54.5,69.2,54.2z"/>
				<path d="M69.7,56.5c-2.4,0-4.7-1.2-6.4-3.4c-0.1-0.2-0.1-0.4,0-0.6c0.2-0.2,0.4-0.2,0.6,0c1.6,1.2,3.4,1.6,5.2,1.2l0,0
					c3.8-0.8,6.2-5.1,5.3-9.7c-0.3-1.5-0.9-2.8-1.8-4c-0.1-0.2-0.1-0.4,0-0.6s0.4-0.2,0.6,0c1.9,1.4,3.3,3.6,3.8,6.1
					c0.5,2.4,0.1,4.8-1,6.9c-1.1,2-2.9,3.4-5,3.8C70.6,56.4,70.1,56.5,69.7,56.5z M66,54.5c1.5,1,3.2,1.4,4.9,1
					c1.8-0.4,3.4-1.6,4.4-3.4c1-1.8,1.3-4.1,0.9-6.3c-0.2-1.2-0.7-2.3-1.3-3.3c0.2,0.4,0.3,0.9,0.4,1.4c1,5-1.7,9.8-6,10.7l0,0
					C68.2,54.8,67,54.7,66,54.5z M69.2,54.2L69.2,54.2L69.2,54.2z"/>
			</g>
			<g>
				<path d="M69.2,54.2c-1.9,0.4-3.9-0.1-5.5-1.3c-0.9-1.2-1.5-2.5-1.8-4.1c-1-4.8,1.6-9.3,5.7-10.2c1.9-0.4,3.9,0.1,5.5,1.3
					c0.9,1.2,1.5,2.5,1.8,4.1C75.8,48.8,73.2,53.3,69.2,54.2z"/>
				<path d="M67.9,54.7c-1.6,0-3.1-0.5-4.5-1.5l-0.1-0.1c-1-1.2-1.6-2.7-1.9-4.3c-0.5-2.4-0.1-4.8,1-6.9c1.1-2,2.9-3.4,5-3.8
					c2-0.4,4.1,0.1,5.8,1.4l0.1,0.1c0.9,1.2,1.6,2.7,1.9,4.3c1,5-1.7,9.8-6,10.7l0,0C68.8,54.7,68.3,54.7,67.9,54.7z M64,52.5
					c1.6,1.1,3.4,1.5,5.1,1.2c3.8-0.8,6.2-5.1,5.3-9.7c-0.3-1.4-0.9-2.8-1.7-3.9c-1.6-1.1-3.4-1.5-5.1-1.2c-1.8,0.4-3.4,1.6-4.4,3.4
					c-1,1.8-1.3,4.1-0.9,6.3C62.5,50.1,63.1,51.4,64,52.5z"/>
			</g>
			<circle class="st5" cx="67.7" cy="43.2" r="3.2"/>
			<circle class="st5" cx="64.5" cy="48.8" r="1.6"/>
		</g>
		<path d="M76.2,43.7c3-0.5,4.3-2.4,4.3-2.4s-2.2,1.7-7.3-1.7"/>
	</g>
	<g>
		<g>
			<path class="st7" d="M99.2,77l18.3,3.5c3.7,0.7,5.6,4.9,3.7,8.1l-15.9,27.2l-7.5,12.8c-4.2,7.1-14.9,5.1-16.2-3.1l-2.3-14.6
				l-4.9-31.2c-0.6-3.7,2.7-6.9,6.4-6.2L99.2,77z"/>
			<path class="st3" d="M90.3,134c-0.6,0-1.2-0.1-1.9-0.2c-4.1-0.8-7.2-4-7.9-8.1l-7.2-45.8c-0.3-2.1,0.4-4.2,1.9-5.7
				s3.7-2.1,5.8-1.7l36.7,6.9c2.1,0.4,3.8,1.8,4.7,3.7c0.9,2,0.8,4.2-0.3,6l-23.4,40C96.9,132.2,93.7,134,90.3,134z M79.8,74.5
				c-1.1,0-2.2,0.4-3,1.2c-1,1-1.5,2.4-1.3,3.8l7.2,45.8c0.6,3.9,3.6,5.8,6.2,6.3c2.6,0.5,6-0.2,8-3.7l23.4-40
				c0.7-1.2,0.8-2.7,0.2-4s-1.8-2.2-3.2-2.5l-36.7-6.9C80.3,74.6,80.1,74.5,79.8,74.5z"/>
		</g>
		<g>
			<path class="st8" d="M123.9,76.6l0.1-6.1c0-2.1-0.7-4-1.9-5.6c1.3-10.5-5.8-20.4-16.3-22.4s-20.8,4.6-23.4,14.9
				c-1.7,1-3.1,2.5-3.8,4.5l-2.2,5.7c-2,5.2,1.2,10.8,6.6,11.9l15,2.8l0.4,0.1l15,2.8C118.8,86.2,123.8,82.1,123.9,76.6z"/>
			<path class="st3" d="M115,86.4c-0.6,0-1.2-0.1-1.8-0.2l-30.5-5.8c-2.9-0.6-5.4-2.3-6.8-4.9c-1.4-2.6-1.7-5.6-0.6-8.4l2.2-5.7
				c0.8-2,2.1-3.7,3.9-4.8c2.9-10.6,13.6-17.3,24.5-15.2s18.4,12.2,17.2,23.1c1.2,1.7,1.9,3.8,1.9,5.9l-0.1,6.1
				c0,2.9-1.3,5.7-3.6,7.6C119.5,85.6,117.3,86.4,115,86.4z M101.9,43.2c-8.6,0-16.4,5.8-18.6,14.4l-0.1,0.4l-0.4,0.2
				c-1.5,0.9-2.7,2.3-3.4,4L77.3,68c-0.8,2.2-0.7,4.6,0.5,6.6c1.1,2,3.1,3.4,5.3,3.9l30.5,5.8c2.3,0.4,4.6-0.2,6.4-1.6
				s2.8-3.6,2.8-5.9l0.1-6.1c0-1.8-0.6-3.5-1.7-4.9l-0.3-0.3l0.1-0.4c1.2-10-5.6-19.3-15.5-21.2C104.3,43.3,103.1,43.2,101.9,43.2z"
				/>
		</g>
	</g>
	<g>
		<path class="st9" d="M122.9,60.3c-1.1-10.6-10.1-18.9-21-18.9s-19.1,5.6-20.2,16.2l0,0c-1.8,1.7-1.7,4.7,0.4,6.1
			c0.8,0.5,1.8,0.9,3.1,0.9c5.9,0,2.9,4.5,6.7,4.5s3.3-3.8,6.4-3.8c3.1,0,2.3-1.2,4.6-1.2s1,4.7,4.6,4.7s1.9-3.4,3.8-3.4
			s1.3,5.5,4.4,5.5s1.2-3.5,3.6-3.5c2.2,0,3.8-0.4,4-6.2h0C123.2,61.4,122.9,60.3,122.9,60.3z"/>
		<path class="st3" d="M115.6,72.1c-2.5,0-3.3-2.4-3.8-4c-0.2-0.4-0.4-1.1-0.6-1.4c0,0.1-0.1,0.2-0.1,0.4c-0.3,1-0.8,2.9-3.7,2.9
			c-2.8,0-3.5-2.2-3.9-3.5c-0.3-0.8-0.4-1.2-0.6-1.2c-0.7,0-0.9,0.1-1.3,0.4c-0.7,0.5-1.4,0.9-3.3,0.9c-0.9,0-1.3,0.4-2,1.3
			c-0.8,1-1.9,2.4-4.4,2.4c-2.4,0-3-1.6-3.4-2.6c-0.4-1.1-0.7-1.9-3.3-1.9c-1.3,0-2.5-0.4-3.6-1.1c-1.3-0.8-2.1-2.2-2.2-3.7
			c-0.1-1.4,0.3-2.8,1.3-3.8c1.3-10.4,9.3-16.8,21.2-16.8c11.4,0,20.8,8.5,22,19.8c0.2,0.8,0.3,1.2,0.2,1.5c-0.2,5.8-2,7-5,7
			c-0.2,0-0.2,0-0.2,0c-0.1,0.1-0.2,0.5-0.2,0.7C118.5,70.4,118.1,72.1,115.6,72.1z M111.2,64.4c1.6,0,2.1,1.6,2.6,3
			c0.6,1.8,1,2.6,1.8,2.6c0.8,0,0.8-0.2,1.1-1.1c0.2-0.8,0.6-2.4,2.5-2.4c1.6,0,2.7,0,2.9-5.1c-0.1-0.3-0.2-0.8-0.2-0.8
			c0,0,0-0.1,0-0.1c-1.1-10.2-9.6-17.9-19.9-17.9c-11,0-18.1,5.7-19.1,15.3c0,0.3-0.2,0.5-0.3,0.7c-0.7,0.6-1,1.5-0.9,2.3
			c0.1,0.8,0.5,1.6,1.2,2c0.8,0.5,1.6,0.7,2.5,0.7c4,0,4.8,2,5.3,3.3c0.4,0.9,0.5,1.2,1.4,1.2c1.5,0,2-0.7,2.7-1.6
			c0.7-1,1.7-2.2,3.7-2.2c1.3,0,1.7-0.2,2.1-0.5c0.6-0.4,1.2-0.7,2.5-0.7c1.8,0,2.3,1.6,2.7,2.7c0.5,1.5,0.8,2,1.9,2
			c1.2,0,1.4-0.4,1.6-1.3C109.2,65.8,109.6,64.4,111.2,64.4z"/>
	</g>
	<g>
		<path class="st4" d="M63.7,112l10.7,0.1c6.3-0.9,12.2-3.6,16.9-7.8l0,0c3.8-3.3,9.7-2.7,12.6,1.4l0,0c2.9,3.9,1.9,9.4-2,12.2
			l-7.1,4.9c-3.9,2.7-8.4,4.6-13,5.4l-16.3,1.5c0,0-22.4,5.3-37.9-9.6"/>
		<path class="st3" d="M56.2,131.7c-8.2,0-20-1.8-29.3-10.8c-0.4-0.4-0.4-1.1,0-1.5c0.4-0.4,1.1-0.4,1.5,0
			c14.9,14.3,36.7,9.4,36.9,9.3c0.1,0,0.1,0,0.2,0l16.2-1.5c4.5-0.8,8.8-2.6,12.6-5.2l7.1-4.9c1.7-1.2,2.8-2.9,3.2-5
			c0.3-2-0.1-4.1-1.4-5.7c-1.3-1.7-3.1-2.8-5.3-3.1c-2.1-0.2-4.2,0.4-5.8,1.8c-4.9,4.3-11,7.1-17.5,8c-0.1,0-0.1,0-0.2,0l-10.7-0.1
			c-0.6,0-1.1-0.5-1.1-1.1c0-0.6,0.5-1.1,1.1-1.1c0,0,0,0,0,0l10.6,0.1c6.1-0.9,11.7-3.5,16.3-7.5c2.1-1.8,4.8-2.6,7.5-2.3
			s5.2,1.7,6.8,3.9c1.6,2.1,2.2,4.7,1.7,7.3c-0.4,2.6-1.9,4.9-4,6.4l-7.1,4.9c-4,2.8-8.7,4.7-13.5,5.6c0,0-0.1,0-0.1,0l-16.2,1.5
			C65.1,131,61.4,131.7,56.2,131.7z"/>
	</g>
	<path class="st10" d="M67.3,74.3L67.3,74.3l-9.5,4.1l-11.2,0.1c2.7,4.4,7.3,6.9,12,5.9S66.5,79.4,67.3,74.3L67.3,74.3L67.3,74.3z"
		/>
	<g>
		<g>
			<path class="st11" d="M46.6,78.5c1.5,1.8,3.3,3.3,5.4,4.3c2,0.9,4.3,1.3,6.4,0.8c2.1-0.4,4.1-1.6,5.6-3.2c1.5-1.7,2.6-3.7,3.3-6
				c0,2.4-0.8,4.9-2.3,6.9c-1.5,2-3.8,3.6-6.3,4.1c-2.5,0.5-5.2,0-7.4-1.3C49.2,82.7,47.5,80.7,46.6,78.5z"/>
		</g>
		<g>
			<path class="st11" d="M67.3,74.3c-1.4,1.2-2.9,2.2-4.6,3c-1.7,0.8-3.4,1.3-5.2,1.7c-1.8,0.4-3.7,0.5-5.5,0.4
				c-1.8-0.1-3.7-0.4-5.4-1c1.8-0.1,3.6-0.2,5.4-0.4c1.8-0.2,3.5-0.4,5.2-0.8c1.7-0.3,3.4-0.8,5.1-1.3
				C63.9,75.5,65.6,74.9,67.3,74.3z"/>
		</g>
	</g>
</g>
</svg>
