<?xml version="1.0" encoding="utf-8"?>
<!-- Generator: Adobe Illustrator 26.0.1, SVG Export Plug-In . SVG Version: 6.00 Build 0)  -->
<svg version="1.1" id="Layer_1" xmlns="http://www.w3.org/2000/svg" xmlns:xlink="http://www.w3.org/1999/xlink" x="0px" y="0px"
	 viewBox="0 0 841.89 265.79" style="enable-background:new 0 0 841.89 265.79;" xml:space="preserve">
<style type="text/css">
	.st0{opacity:0.6;fill:#5CC0CE;}
	.st1{fill:#FFFFFF;}
	.st2{opacity:0.6;fill:#F0828F;}
</style>
<path class="st0" d="M0,81.37c0,0,50.4-3.09,50.4,39.93s-0.34,88.63,25.03,88.63c36.97,0,4.88-158.19,51.57-158.19
	c30.54,0,3,64.4,45.31,64.4s10.27-60.73,48.72-60.73c62.02,0,3.38,205.09,55.18,205.09s-4.82-180.22,61.96-180.22
	c44.09,0,11.67,72.89,47.64,72.89c35.14,0-0.8-100.69,59.06-100.69s24.52,52.09,56.01,52.09s2.52-45.82,42.85-45.82
	s45.7,38.43,45.7,81.62s-21.7,125.41,26.14,125.41c47.83,0-8.21-154.94,59.22-154.94s16.17,67.18,67.31,67.18
	S730.88,69.65,790.91,69.65s50.42-89.81,50.42-89.81H0V81.37z"/>
<path class="st1" d="M0,73.7c0,0,50.4-3.09,50.4,39.93s-0.34,88.63,25.03,88.63c36.97,0,4.88-158.19,51.57-158.19
	c30.54,0,3,64.4,45.31,64.4s10.27-60.73,48.72-60.73c62.02,0,3.38,205.09,55.18,205.09S271.39,72.6,338.17,72.6
	c44.09,0,11.67,72.89,47.64,72.89c35.14,0-0.8-100.69,59.06-100.69s24.52,52.09,56.01,52.09s2.52-45.82,42.85-45.82
	s45.7,38.43,45.7,81.62s-21.7,125.41,26.14,125.41c47.83,0-8.21-154.94,59.22-154.94s16.17,67.18,67.31,67.18
	S730.88,61.98,790.91,61.98s50.42-89.81,50.42-89.81H0V73.7z"/>
<path class="st2" d="M0,73.7c0,0,50.4-3.09,50.4,39.93s-0.34,88.63,25.03,88.63c36.97,0,4.88-158.19,51.57-158.19
	c30.54,0,3,64.4,45.31,64.4s10.27-60.73,48.72-60.73c62.02,0,3.38,205.09,55.18,205.09S271.39,72.6,338.17,72.6
	c44.09,0,11.67,72.89,47.64,72.89c35.14,0-0.8-100.69,59.06-100.69s24.52,52.09,56.01,52.09s2.52-45.82,42.85-45.82
	s45.7,38.43,45.7,81.62s-21.7,125.41,26.14,125.41c47.83,0-8.21-154.94,59.22-154.94s16.17,67.18,67.31,67.18
	S730.88,61.98,790.91,61.98s50.42-89.81,50.42-89.81H0V73.7z"/>
</svg>
